<?xml version="1.0" encoding="UTF-8" standalone="no"?>
<!-- Created with Inkscape (http://www.inkscape.org/) -->

<svg
   xmlns:dc="http://purl.org/dc/elements/1.1/"
   xmlns:cc="http://creativecommons.org/ns#"
   xmlns:rdf="http://www.w3.org/1999/02/22-rdf-syntax-ns#"
   xmlns:svg="http://www.w3.org/2000/svg"
   xmlns="http://www.w3.org/2000/svg"
   xmlns:xlink="http://www.w3.org/1999/xlink"
   xmlns:sodipodi="http://sodipodi.sourceforge.net/DTD/sodipodi-0.dtd"
   xmlns:inkscape="http://www.inkscape.org/namespaces/inkscape"
   version="1.0"
   width="48"
   height="48"
   id="svg2527"
   inkscape:version="0.91 r"
   sodipodi:docname="com_keramidas_titaniumbackup.svg">
  <sodipodi:namedview
     pagecolor="#ffffff"
     bordercolor="#666666"
     borderopacity="1"
     objecttolerance="10"
     gridtolerance="10"
     guidetolerance="10"
     inkscape:pageopacity="0"
     inkscape:pageshadow="2"
     inkscape:window-width="1600"
     inkscape:window-height="845"
     id="namedview26"
     showgrid="false"
     inkscape:zoom="1"
     inkscape:cx="24"
     inkscape:cy="24"
     inkscape:window-x="0"
     inkscape:window-y="30"
     inkscape:window-maximized="1"
     inkscape:current-layer="svg2527" />
  <metadata
     id="metadata27">
    <rdf:RDF>
      <cc:Work
         rdf:about="">
        <dc:format>image/svg+xml</dc:format>
        <dc:type
           rdf:resource="http://purl.org/dc/dcmitype/StillImage" />
        <dc:title></dc:title>
      </cc:Work>
    </rdf:RDF>
  </metadata>
  <defs
     id="defs2529">
    <linearGradient
       id="linearGradient8838">
      <stop
         id="stop8840"
         style="stop-color:#000000;stop-opacity:1"
         offset="0" />
      <stop
         id="stop8842"
         style="stop-color:#000000;stop-opacity:0"
         offset="1" />
    </linearGradient>
    <radialGradient
       cx="62.625"
       cy="4.625"
       r="10.625"
       fx="62.625"
       fy="4.625"
       id="radialGradient2436"
       xlink:href="#linearGradient8838"
       gradientUnits="userSpaceOnUse"
       gradientTransform="matrix(2.1647059,0,0,0.7529402,-111.56471,36.517647)" />
    <linearGradient
       id="linearGradient3397">
      <stop
         id="stop3399"
         style="stop-color:#aaaaaa;stop-opacity:1"
         offset="0" />
      <stop
         id="stop3401"
         style="stop-color:#8c8c8c;stop-opacity:1"
         offset="1" />
    </linearGradient>
    <linearGradient
       x1="37.201294"
       y1="1"
       x2="37.201294"
       y2="45"
       id="linearGradient2517"
       xlink:href="#linearGradient3397"
       gradientUnits="userSpaceOnUse" />
    <linearGradient
       x1="63.9995"
       y1="3.1001"
       x2="63.9995"
       y2="122.8994"
       id="linearGradient3309"
       gradientUnits="userSpaceOnUse">
      <stop
         id="stop3311"
         style="stop-color:#f6f6f6;stop-opacity:1"
         offset="0" />
      <stop
         id="stop3313"
         style="stop-color:#d2d2d2;stop-opacity:1"
         offset="1" />
    </linearGradient>
    <linearGradient
       x1="20.758585"
       y1="1"
       x2="20.758585"
       y2="45.017357"
       id="linearGradient2515"
       xlink:href="#linearGradient3309"
       gradientUnits="userSpaceOnUse" />
    <linearGradient
       id="linearGradient5128">
      <stop
         id="stop5130"
         style="stop-color:#e5e5e5;stop-opacity:1"
         offset="0" />
      <stop
         id="stop5132"
         style="stop-color:#ababab;stop-opacity:1"
         offset="1" />
    </linearGradient>
    <linearGradient
       x1="86.132919"
       y1="105.105"
       x2="84.63858"
       y2="20.895"
       id="linearGradient2512"
       xlink:href="#linearGradient5128"
       gradientUnits="userSpaceOnUse"
       gradientTransform="matrix(0.3244803,0,0,0.3244803,3.2332655,2.5577454)" />
  </defs>
  <path
     style="display:inline;overflow:visible;visibility:visible;opacity:0.3;fill:url(#radialGradient2436);fill-opacity:1;fill-rule:evenodd;stroke:none;stroke-width:0.99999988;marker:none"
     id="path8836"
     inkscape:connector-curvature="0"
     d="m 46.999997,40 c 0,4.418278 -10.297452,8 -23,8 -12.702548,0 -23.0000002,-3.581722 -23.0000002,-8 0,-4.418278 10.2974522,-8 23.0000002,-8 12.702548,0 23,3.581722 23,8 l 0,0 z" />
  <path
     style="display:block;overflow:visible;visibility:visible;fill:url(#linearGradient2515);fill-opacity:1;fill-rule:nonzero;stroke:url(#linearGradient2517);stroke-width:1;stroke-linecap:butt;stroke-linejoin:round;stroke-miterlimit:4;stroke-dasharray:none;stroke-dashoffset:0;stroke-opacity:1;marker:none;enable-background:accumulate"
     id="rect3267"
     inkscape:connector-curvature="0"
     d="M 21.03125,1.5 C 20.18512,1.5 19.5,2.2019069 19.5,3.0625 l 0,3.03125 C 17.987058,6.4968555 16.541437,7.105736 15.21875,7.875 L 13.0625,5.71875 C 12.758234,5.4144843 12.393747,5.2533367 12,5.25 11.606253,5.2466633 11.205402,5.3883479 10.90625,5.6875 L 6.6875,9.90625 C 6.0891956,10.504554 6.1102186,11.453968 6.71875,12.0625 L 8.875,14.21875 C 8.105736,15.541437 7.4968555,16.987058 7.09375,18.5 l -3.03125,0 C 3.2019067,18.5 2.5,19.185119 2.5,20.03125 l 0,5.9375 C 2.5,26.81488 3.201907,27.5 4.0625,27.5 l 3.03125,0 c 0.4031055,1.512942 1.011986,2.958563 1.78125,4.28125 L 6.71875,33.9375 C 6.1102187,34.546031 6.0891959,35.495445 6.6875,36.09375 l 4.21875,4.21875 c 0.598304,0.598304 1.547718,0.577279 2.15625,-0.03125 L 15.21875,38.125 c 1.322687,0.769264 2.768308,1.378144 4.28125,1.78125 l 0,3.03125 c 0,0.860593 0.685119,1.5625 1.53125,1.5625 l 5.9375,0 C 27.81488,44.5 28.5,43.798093 28.5,42.9375 l 0,-3.03125 c 1.512942,-0.403106 2.958563,-1.011986 4.28125,-1.78125 l 2.15625,2.15625 c 0.608531,0.608531 1.557946,0.629555 2.15625,0.03125 l 4.21875,-4.21875 c 0.598304,-0.598304 0.577281,-1.547719 -0.03125,-2.15625 L 39.125,31.78125 C 39.894264,30.458563 40.503144,29.012942 40.90625,27.5 l 3.03125,0 c 0.860593,0 1.5625,-0.685119 1.5625,-1.53125 l 0,-5.9375 C 45.5,19.18512 44.798093,18.5 43.9375,18.5 l -3.03125,0 C 40.503144,16.987058 39.894264,15.541437 39.125,14.21875 l 2.15625,-2.15625 c 0.608531,-0.608531 0.629555,-1.557946 0.03125,-2.15625 L 37.09375,5.6875 C 36.495446,5.0891956 35.54603,5.1102187 34.9375,5.71875 L 32.78125,7.875 C 31.458563,7.105736 30.012942,6.4968555 28.5,6.09375 l 0,-3.03125 C 28.5,2.2019067 27.814881,1.5 26.96875,1.5 Z"
     sodipodi:nodetypes="ssccsssssccssssccssssccssssccssssccssssccssssccsss" />
  <path
     inkscape:connector-curvature="0"
     id="path4186"
     d="m 14,15 0,4 5,0 0,14 4,0 0,-14 5,0 0,-4 -14,0 z m 15,5 0,4 4,0 0,-4 -4,0 z m 0,5 0,8 4,0 0,-8 -4,0 z"
     style="opacity:0.5;fill:none;fill-opacity:1;stroke:#ffffff;stroke-width:1;stroke-linecap:round;stroke-linejoin:round;stroke-miterlimit:4;stroke-dasharray:none;stroke-opacity:1" />
  <path
     style="opacity:1;fill:#6491ff;fill-opacity:1;stroke:none;stroke-width:2;stroke-linecap:round;stroke-linejoin:round;stroke-miterlimit:4;stroke-dasharray:none;stroke-opacity:1"
     d="m 14,15 0,4 5,0 0,14 4,0 0,-14 5,0 0,-4 -14,0 z m 15,5 0,4 4,0 0,-4 -4,0 z m 0,5 0,8 4,0 0,-8 -4,0 z"
     id="rect4158"
     inkscape:connector-curvature="0" />
  <path
     style="opacity:0.15;fill:#000000;fill-opacity:1;stroke:none;stroke-width:2;stroke-linecap:round;stroke-linejoin:round;stroke-miterlimit:4;stroke-dasharray:none;stroke-opacity:1"
     d="M 14 15 L 14 19 L 19 19 L 19 33 L 23 33 L 23 19 L 28 19 L 28 15 L 14 15 z M 15 16 L 27 16 L 27 18 L 23 18 A 1.0001 1.0001 0 0 0 22 19 L 22 32 L 20 32 L 20 19 A 1.0001 1.0001 0 0 0 19 18 L 15 18 L 15 16 z M 29 20 L 29 24 L 33 24 L 33 20 L 29 20 z M 30 21 L 32 21 L 32 23 L 30 23 L 30 21 z M 29 25 L 29 33 L 33 33 L 33 25 L 29 25 z M 30 26 L 32 26 L 32 32 L 30 32 L 30 26 z "
     id="path4177" />
</svg>
