<?xml version="1.0" encoding="UTF-8" standalone="no"?>
<svg
   xmlns:dc="http://purl.org/dc/elements/1.1/"
   xmlns:cc="http://creativecommons.org/ns#"
   xmlns:rdf="http://www.w3.org/1999/02/22-rdf-syntax-ns#"
   xmlns:svg="http://www.w3.org/2000/svg"
   xmlns="http://www.w3.org/2000/svg"
   xmlns:sodipodi="http://sodipodi.sourceforge.net/DTD/sodipodi-0.dtd"
   xmlns:inkscape="http://www.inkscape.org/namespaces/inkscape"
   height="48"
   width="48"
   version="1.1"
   id="svg2"
   inkscape:version="0.91 r"
   sodipodi:docname="com_google_android_apps_books.svg">
  <metadata
     id="metadata86">
    <rdf:RDF>
      <cc:Work
         rdf:about="">
        <dc:format>image/svg+xml</dc:format>
        <dc:type
           rdf:resource="http://purl.org/dc/dcmitype/StillImage" />
        <dc:title></dc:title>
      </cc:Work>
    </rdf:RDF>
  </metadata>
  <sodipodi:namedview
     pagecolor="#ffffff"
     bordercolor="#666666"
     borderopacity="1"
     objecttolerance="10"
     gridtolerance="10"
     guidetolerance="10"
     inkscape:pageopacity="0"
     inkscape:pageshadow="2"
     inkscape:window-width="1600"
     inkscape:window-height="841"
     id="namedview84"
     showgrid="false"
     inkscape:zoom="1"
     inkscape:cx="24"
     inkscape:cy="25.766784"
     inkscape:window-x="-4"
     inkscape:window-y="33"
     inkscape:window-maximized="1"
     inkscape:current-layer="svg2" />
  <defs
     id="defs4">
    <linearGradient
       id="f"
       y2="43"
       gradientUnits="userSpaceOnUse"
       x2="24"
       gradientTransform="translate(.0000117 1)"
       y1="5"
       x1="24">
      <stop
         stop-color="#fff"
         offset="0"
         id="stop7" />
      <stop
         stop-color="#fff"
         stop-opacity=".23529"
         offset=".063165"
         id="stop9" />
      <stop
         stop-color="#fff"
         stop-opacity=".15686"
         offset=".95056"
         id="stop11" />
      <stop
         stop-color="#fff"
         stop-opacity=".39216"
         offset="1"
         id="stop13" />
    </linearGradient>
    <radialGradient
       id="a"
       gradientUnits="userSpaceOnUse"
       cy="8.4498"
       cx="7.4957"
       gradientTransform="matrix(0 1.9103 -2.4089 -5.1996e-8 44.354 -7.7516)"
       r="20">
      <stop
         stop-color="#79a8f7"
         offset="0"
         id="stop16" />
      <stop
         stop-color="#74a5f7"
         offset=".26238"
         id="stop18" />
      <stop
         stop-color="#337bf3"
         offset=".70495"
         id="stop20" />
      <stop
         stop-color="#0e62ed"
         offset="1"
         id="stop22" />
    </radialGradient>
    <radialGradient
       id="c"
       gradientUnits="userSpaceOnUse"
       cy="43.5"
       cx="4.993"
       gradientTransform="matrix(2.0038 0 0 1.4 27.988 -17.4)"
       r="2.5">
      <stop
         stop-color="#181818"
         offset="0"
         id="stop25" />
      <stop
         stop-color="#181818"
         stop-opacity="0"
         offset="1"
         id="stop27" />
    </radialGradient>
    <radialGradient
       id="b"
       gradientUnits="userSpaceOnUse"
       cy="43.5"
       cx="4.993"
       gradientTransform="matrix(2.0038 0 0 1.4 -20.012 -104.4)"
       r="2.5">
      <stop
         stop-color="#181818"
         offset="0"
         id="stop30" />
      <stop
         stop-color="#181818"
         stop-opacity="0"
         offset="1"
         id="stop32" />
    </radialGradient>
    <linearGradient
       id="d"
       y2="39.999"
       gradientUnits="userSpaceOnUse"
       x2="25.058"
       y1="47.028"
       x1="25.058">
      <stop
         stop-color="#181818"
         stop-opacity="0"
         offset="0"
         id="stop35" />
      <stop
         stop-color="#181818"
         offset=".5"
         id="stop37" />
      <stop
         stop-color="#181818"
         stop-opacity="0"
         offset="1"
         id="stop39" />
    </linearGradient>
    <linearGradient
       id="e"
       y2="5.0205"
       gradientUnits="userSpaceOnUse"
       x2="-1.2857"
       gradientTransform="translate(41.286)"
       y1="44.977"
       x1="-1.2857">
      <stop
         stop-color="#0a45a8"
         offset="0"
         id="stop42" />
      <stop
         stop-color="#0d5ce0"
         offset="1"
         id="stop44" />
    </linearGradient>
    <clipPath
       id="clipPath-387052144">
      <g
         transform="translate(0,-1004.3622)"
         id="g17">
        <path
           style="fill:#1890d0"
           inkscape:connector-curvature="0"
           d="m -24,13 c 0,1.105 -0.672,2 -1.5,2 -0.828,0 -1.5,-0.895 -1.5,-2 0,-1.105 0.672,-2 1.5,-2 0.828,0 1.5,0.895 1.5,2 z"
           transform="matrix(15.333333,0,0,11.5,414.99999,878.8622)"
           id="path19" />
      </g>
    </clipPath>
  </defs>
  <g
     opacity=".4"
     transform="matrix(1.1579 0 0 .57143 -3.7895 19.143)"
     id="g46">
    <rect
       height="7"
       width="5"
       y="40"
       x="38"
       fill="url(#c)"
       id="rect48" />
    <rect
       transform="scale(-1)"
       height="7"
       width="5"
       y="-47"
       x="-10"
       fill="url(#b)"
       id="rect50" />
    <rect
       height="7"
       width="28"
       y="40"
       x="10"
       fill="url(#d)"
       id="rect52" />
  </g>
  <rect
     style="color:#000000"
     rx="1.5031"
     ry="1.5031"
     height="38"
     width="38"
     y="6"
     x="5"
     fill="url(#a)"
     id="rect54" />
  <rect
     opacity=".5"
     stroke-linejoin="round"
     rx="1"
     ry="1"
     height="37"
     width="37"
     stroke="url(#f)"
     stroke-linecap="round"
     y="6.5"
     x="5.5"
     fill="none"
     id="rect56" />
  <rect
     stroke-linejoin="round"
     style="color:#000000"
     rx="2"
     ry="2"
     height="39"
     width="39"
     stroke="url(#e)"
     stroke-linecap="round"
     y="5.5"
     x="4.5"
     fill="none"
     id="rect58" />
  <g
     id="g4249"
     style="fill:none;stroke:#000000;stroke-opacity:1;stroke-linejoin:round;stroke-linecap:round;stroke-width:2;stroke-miterlimit:4;stroke-dasharray:none;opacity:0.15">
    <g
       id="g4251"
       clip-path="url(#clipPath-387052144)"
       style="fill:none;stroke:#000000;stroke-opacity:1;stroke-linejoin:round;stroke-linecap:round;stroke-width:2;stroke-miterlimit:4;stroke-dasharray:none">
      <!-- color: #4686da -->
      <g
         id="g4253"
         style="fill:none;stroke:#000000;stroke-opacity:1;stroke-linejoin:round;stroke-linecap:round;stroke-width:2;stroke-miterlimit:4;stroke-dasharray:none">
        <path
           sodipodi:nodetypes="ccccccccccccccccccccc"
           inkscape:connector-curvature="0"
           id="path4255"
           d="m 12,13 0,17 c 0,0 0,0 9,6 l 0,-18 z m 2,0 8,5 4,0 8,-5 c -4,0 -6,0.52 -10,4 -4,-3.395 -6,-4 -10,-4 z m 22,0 -9,5 0,18 9,-6 z m -14,6 0,18 4,0 0,-18 z"
           style="fill:none;stroke:#000000;stroke-opacity:1;stroke-linejoin:round;stroke-linecap:round;stroke-width:2;stroke-miterlimit:4;stroke-dasharray:none" />
      </g>
    </g>
  </g>
  <g
     id="g4257"
     style="opacity:0.15;fill:#000000;fill-opacity:1;stroke:none"
     transform="translate(0,1)">
    <g
       id="g4259"
       clip-path="url(#clipPath-387052144)"
       style="fill:#000000;fill-opacity:1;stroke:none">
      <!-- color: #4686da -->
      <g
         id="g4261"
         style="fill:#000000;fill-opacity:1;stroke:none">
        <path
           sodipodi:nodetypes="ccccccccccccccccccccc"
           inkscape:connector-curvature="0"
           id="path4263"
           d="m 12,13 0,17 c 0,0 0,0 9,6 l 0,-18 z m 2,0 8,5 4,0 8,-5 c -4,0 -6,0.52 -10,4 -4,-3.395 -6,-4 -10,-4 z m 22,0 -9,5 0,18 9,-6 z m -14,6 0,18 4,0 0,-18 z"
           style="fill:#000000;fill-opacity:1;stroke:none" />
      </g>
    </g>
  </g>
  <g
     id="g45">
    <g
       clip-path="url(#clipPath-387052144)"
       id="g47">
      <!-- color: #4686da -->
      <g
         id="g49">
        <path
           style="fill:#f9f9f9"
           d="m 12,13 0,17 c 0,0 0,0 9,6 l 0,-18 z m 2,0 8,5 4,0 8,-5 c -4,0 -6,0.52 -10,4 -4,-3.395 -6,-4 -10,-4 z m 22,0 -9,5 0,18 9,-6 z m -14,6 0,18 4,0 0,-18 z"
           id="path51"
           inkscape:connector-curvature="0"
           sodipodi:nodetypes="ccccccccccccccccccccc" />
      </g>
    </g>
  </g>
</svg>
