<?xml version="1.0" encoding="UTF-8" standalone="no"?>
<!-- Created with Inkscape (http://www.inkscape.org/) -->

<svg
   xmlns:dc="http://purl.org/dc/elements/1.1/"
   xmlns:cc="http://creativecommons.org/ns#"
   xmlns:rdf="http://www.w3.org/1999/02/22-rdf-syntax-ns#"
   xmlns:svg="http://www.w3.org/2000/svg"
   xmlns="http://www.w3.org/2000/svg"
   xmlns:xlink="http://www.w3.org/1999/xlink"
   xmlns:sodipodi="http://sodipodi.sourceforge.net/DTD/sodipodi-0.dtd"
   xmlns:inkscape="http://www.inkscape.org/namespaces/inkscape"
   version="1.1"
   width="48"
   height="48"
   id="svg4031"
   inkscape:version="0.91 r"
   sodipodi:docname="icon.svg">
  <sodipodi:namedview
     pagecolor="#ffffff"
     bordercolor="#666666"
     borderopacity="1"
     objecttolerance="10"
     gridtolerance="10"
     guidetolerance="10"
     inkscape:pageopacity="0"
     inkscape:pageshadow="2"
     inkscape:window-width="1600"
     inkscape:window-height="841"
     id="namedview48"
     showgrid="false"
     inkscape:zoom="1"
     inkscape:cx="24"
     inkscape:cy="24"
     inkscape:window-x="-4"
     inkscape:window-y="33"
     inkscape:window-maximized="1"
     inkscape:current-layer="svg4031" />
  <defs
     id="defs4033">
    <linearGradient
       id="linearGradient4168">
      <stop
         id="stop4170"
         style="stop-color:#f8b17e;stop-opacity:1"
         offset="0" />
      <stop
         id="stop4172"
         style="stop-color:#e35d4f;stop-opacity:1"
         offset="0.23208089" />
      <stop
         id="stop4174"
         style="stop-color:#c6262e;stop-opacity:1"
         offset="0.5908742" />
      <stop
         id="stop4176"
         style="stop-color:#690b54;stop-opacity:1"
         offset="1" />
    </linearGradient>
    <linearGradient
       id="linearGradient3957">
      <stop
         id="stop3959"
         style="stop-color:#ffffff;stop-opacity:1"
         offset="0" />
      <stop
         id="stop3961"
         style="stop-color:#c1c1c1;stop-opacity:1"
         offset="1" />
    </linearGradient>
    <linearGradient
       id="linearGradient4011">
      <stop
         id="stop4013"
         style="stop-color:#ffffff;stop-opacity:1"
         offset="0" />
      <stop
         id="stop4015"
         style="stop-color:#ffffff;stop-opacity:0.23529412"
         offset="0.507761" />
      <stop
         id="stop4017"
         style="stop-color:#ffffff;stop-opacity:0.15686275"
         offset="0.83456558" />
      <stop
         id="stop4019"
         style="stop-color:#ffffff;stop-opacity:0.39215687"
         offset="1" />
    </linearGradient>
    <linearGradient
       id="linearGradient2867-449-88-871-390-598-476-591-434-148-57-177-3-8">
      <stop
         id="stop3750-8-9"
         style="stop-color:#90dbec;stop-opacity:1"
         offset="0" />
      <stop
         id="stop3752-3-2"
         style="stop-color:#42baea;stop-opacity:1"
         offset="0.26238" />
      <stop
         id="stop3754-7-2"
         style="stop-color:#3689e6;stop-opacity:1"
         offset="0.704952" />
      <stop
         id="stop3756-9-3"
         style="stop-color:#2b63a0;stop-opacity:1"
         offset="1" />
    </linearGradient>
    <linearGradient
       id="linearGradient3820-7-2-1">
      <stop
         id="stop3822-2-6-3"
         style="stop-color:#3d3d3d;stop-opacity:1"
         offset="0" />
      <stop
         id="stop3864-8-7-7"
         style="stop-color:#686868;stop-opacity:0.49803922"
         offset="0.5" />
      <stop
         id="stop3824-1-2-5"
         style="stop-color:#686868;stop-opacity:0"
         offset="1" />
    </linearGradient>
    <linearGradient
       x1="71.204407"
       y1="6.2375584"
       x2="71.204407"
       y2="44.340794"
       id="linearGradient3012"
       xlink:href="#linearGradient4011"
       gradientUnits="userSpaceOnUse"
       gradientTransform="matrix(1.054054,0,0,1.054054,-51.611001,-2.7279009)" />
    <radialGradient
       cx="3.9722471"
       cy="8.4497671"
       r="19.99999"
       fx="3.9722471"
       fy="8.4497671"
       id="radialGradient3015"
       xlink:href="#linearGradient2867-449-88-871-390-598-476-591-434-148-57-177-3-8"
       gradientUnits="userSpaceOnUse"
       gradientTransform="matrix(0,2.4988347,-2.6434689,-6.8014435e-8,46.336814,-12.180468)" />
    <radialGradient
       cx="99.157013"
       cy="186.17059"
       r="62.769119"
       fx="99.157013"
       fy="186.17059"
       id="radialGradient3018"
       xlink:href="#linearGradient3820-7-2-1"
       gradientUnits="userSpaceOnUse"
       gradientTransform="matrix(0.27083381,0,0,0.08762273,-2.855072,25.187228)" />
    <linearGradient
       x1="27.92535"
       y1="15.149301"
       x2="33.447899"
       y2="22.986004"
       id="linearGradient3951"
       xlink:href="#linearGradient4168"
       gradientUnits="userSpaceOnUse" />
    <linearGradient
       x1="24"
       y1="22"
       x2="24"
       y2="26"
       id="linearGradient3963"
       xlink:href="#linearGradient3957"
       gradientUnits="userSpaceOnUse" />
    <linearGradient
       x1="21.013996"
       y1="25.433903"
       x2="22.805599"
       y2="27.343702"
       id="linearGradient3963-7"
       xlink:href="#linearGradient3957-2"
       gradientUnits="userSpaceOnUse" />
    <linearGradient
       id="linearGradient3957-2">
      <stop
         id="stop3959-62"
         style="stop-color:#ffffff;stop-opacity:1"
         offset="0" />
      <stop
         id="stop3961-5"
         style="stop-color:#c1c1c1;stop-opacity:1"
         offset="1" />
    </linearGradient>
  </defs>
  <metadata
     id="metadata4036">
    <rdf:RDF>
      <cc:Work
         rdf:about="">
        <dc:format>image/svg+xml</dc:format>
        <dc:type
           rdf:resource="http://purl.org/dc/dcmitype/StillImage" />
        <dc:title></dc:title>
      </cc:Work>
    </rdf:RDF>
  </metadata>
  <path
     d="m 40.999999,41.499999 a 17,5.4999999 0 1 1 -33.999999,0 17,5.4999999 0 1 1 33.999999,0 z"
     id="path3818-0-5"
     style="fill:url(#radialGradient3018);fill-opacity:1;stroke:none" />
  <path
     d="M 24.000003,3.4999982 C 12.68881,3.4999982 3.4999996,12.688804 3.4999996,23.999998 3.4999996,35.311192 12.68881,44.500003 24.000003,44.5 35.311191,44.5 44.500011,35.311192 44.5,23.999998 44.5,12.688804 35.311191,3.4999982 24.000003,3.4999982 z"
     id="path2555"
     style="color:#000000;fill:url(#radialGradient3015);fill-opacity:1;fill-rule:nonzero;stroke:none;stroke-width:1;marker:none;visibility:visible;display:inline;overflow:visible;enable-background:accumulate" />
  <path
     d="m 43.5,23.999308 c 0,10.7699 -8.73109,19.50069 -19.499753,19.50069 -10.769649,0 -19.5002474,-8.730889 -19.5002474,-19.50069 0,-10.769402 8.7305984,-19.4993078 19.5002474,-19.4993078 C 34.76891,4.5000002 43.5,13.229906 43.5,23.999308 l 0,0 z"
     id="path8655"
     style="opacity:0.5;color:#000000;fill:none;stroke:url(#linearGradient3012);stroke-width:1;stroke-linecap:round;stroke-linejoin:round;stroke-miterlimit:4;stroke-opacity:1;stroke-dasharray:none;stroke-dashoffset:0;marker:none;visibility:visible;display:inline;overflow:visible;enable-background:accumulate" />
  <path
     d="m 24.000003,3.499998 c -11.311193,0 -20.5000034,9.188806 -20.5000034,20.5 0,11.311194 9.1888104,20.500005 20.5000034,20.500002 11.311188,0 20.500008,-9.188808 20.499997,-20.500002 0,-11.311194 -9.188809,-20.5 -20.499997,-20.5 z"
     id="path2555-6"
     style="opacity:0.5;color:#000000;fill:#000000;fill-opacity:0;fill-rule:nonzero;stroke:#00537d;stroke-width:1;stroke-linecap:round;stroke-linejoin:round;stroke-miterlimit:4;stroke-opacity:1;stroke-dasharray:none;stroke-dashoffset:0;marker:none;visibility:visible;display:inline;overflow:visible;enable-background:accumulate" />
  <g
     style="fill:none;fill-opacity:1;stroke:#000000;stroke-opacity:1;stroke-width:46.1538497;stroke-miterlimit:4;stroke-dasharray:none;opacity:0.15"
     inkscape:label="Layer 1"
     id="g4194"
     transform="matrix(0.04333333,0,0,0.04333333,6.666668,-4.2690256)">
    <path
       style="fill:none;fill-opacity:1;stroke:#000000;stroke-opacity:1;stroke-width:46.1538497;stroke-miterlimit:4;stroke-dasharray:none"
       d="M 400,100 C 234.31458,100 100,234.31458 100,400 100,565.68542 234.31458,700 400,700 565.68542,700 700,565.68542 700,400 700,234.31458 565.68542,100 400,100 Z m 0,25 c 125.96744,0 232.15388,84.69851 264.71875,200.25 -28.04815,57.85233 -67.95864,109.93982 -116.5625,152.03125 -23.34873,20.22023 -48.84084,38.24566 -77,50.9375 -28.15915,12.69184 -59.13218,19.89338 -89.96875,18.125 -23.16814,-1.32862 -46.05453,-7.78235 -66.34375,-19.03125 53.77011,-29.13615 102.28589,-67.98342 142,-114.5 26.06753,-30.53253 48.87464,-65.23184 57.65625,-104.40625 4.39081,-19.58721 5.13488,-40.10062 1.03125,-59.75 -4.10363,-19.64938 -13.18869,-38.3744 -26.9375,-53 -13.43177,-14.28834 -31.06457,-24.40957 -49.96875,-29.625 -18.90419,-5.21543 -39.02156,-5.61917 -58.3125,-2.09375 -38.58188,7.05084 -73.02846,29.47402 -100.65625,57.3125 -48.698,49.06936 -78.80363,118.3072 -73.28125,187.21875 2.76118,34.45577 14.3078,68.31298 34.09375,96.65625 4.41651,6.32662 9.27188,12.35256 14.46875,18.0625 C 226.11357,533.27523 196.26878,540.45584 166,544.5 140.01219,502.50734 125,453.01265 125,400 125,248.12169 248.12169,125 400,125 Z m 1.75,55.5625 c 19.33142,0.0262 38.79415,5.87852 54.21875,17.53125 13.89679,10.49852 24.19392,25.43444 30.03125,41.84375 5.83733,16.4093 7.33536,34.22884 5.34375,51.53125 -3.98322,34.6048 -21.44034,66.34009 -42.53125,94.0625 -37.34406,49.08595 -86.98181,88.37335 -142.1875,115.875 -5.65074,2.81501 -11.39103,5.49065 -17.15625,8.0625 -12.01233,-10.51191 -22.30821,-22.97966 -30.15625,-36.875 -16.39874,-29.03476 -21.8066,-63.52517 -18.625,-96.71875 3.1816,-33.19357 14.5728,-65.18517 29.875,-94.8125 17.74222,-34.35158 41.92637,-66.88993 75.78125,-85.5625 16.92744,-9.33629 36.07483,-14.9637 55.40625,-14.9375 z m 270.78125,182.625 C 674.14242,375.22998 675,387.51657 675,400 c 0,151.87831 -123.12169,275 -275,275 -85.29641,0 -161.52774,-38.82999 -211.96875,-99.78125 31.13362,-7.07108 61.56295,-17.22782 90.75,-30.15625 12.76371,9.72047 26.85974,17.69299 41.84375,23.4375 43.15102,16.54306 92.14184,14.14935 135.8125,-0.96875 43.67065,-15.11809 82.39669,-42.25343 116.15625,-73.8125 40.21639,-37.59502 74.12408,-81.90709 99.9375,-130.53125 z"
       transform="translate(0,252.36218)"
       id="path4196"
       inkscape:connector-curvature="0" />
  </g>
  <g
     style="opacity:0.15;fill:#000000;fill-opacity:1"
     inkscape:label="Layer 1"
     id="g4198"
     transform="matrix(0.04333333,0,0,0.04333333,6.666668,-3.2690246)">
    <path
       style="fill:#000000;fill-opacity:1;stroke:none"
       d="M 400,100 C 234.31458,100 100,234.31458 100,400 100,565.68542 234.31458,700 400,700 565.68542,700 700,565.68542 700,400 700,234.31458 565.68542,100 400,100 Z m 0,25 c 125.96744,0 232.15388,84.69851 264.71875,200.25 -28.04815,57.85233 -67.95864,109.93982 -116.5625,152.03125 -23.34873,20.22023 -48.84084,38.24566 -77,50.9375 -28.15915,12.69184 -59.13218,19.89338 -89.96875,18.125 -23.16814,-1.32862 -46.05453,-7.78235 -66.34375,-19.03125 53.77011,-29.13615 102.28589,-67.98342 142,-114.5 26.06753,-30.53253 48.87464,-65.23184 57.65625,-104.40625 4.39081,-19.58721 5.13488,-40.10062 1.03125,-59.75 -4.10363,-19.64938 -13.18869,-38.3744 -26.9375,-53 -13.43177,-14.28834 -31.06457,-24.40957 -49.96875,-29.625 -18.90419,-5.21543 -39.02156,-5.61917 -58.3125,-2.09375 -38.58188,7.05084 -73.02846,29.47402 -100.65625,57.3125 -48.698,49.06936 -78.80363,118.3072 -73.28125,187.21875 2.76118,34.45577 14.3078,68.31298 34.09375,96.65625 4.41651,6.32662 9.27188,12.35256 14.46875,18.0625 C 226.11357,533.27523 196.26878,540.45584 166,544.5 140.01219,502.50734 125,453.01265 125,400 125,248.12169 248.12169,125 400,125 Z m 1.75,55.5625 c 19.33142,0.0262 38.79415,5.87852 54.21875,17.53125 13.89679,10.49852 24.19392,25.43444 30.03125,41.84375 5.83733,16.4093 7.33536,34.22884 5.34375,51.53125 -3.98322,34.6048 -21.44034,66.34009 -42.53125,94.0625 -37.34406,49.08595 -86.98181,88.37335 -142.1875,115.875 -5.65074,2.81501 -11.39103,5.49065 -17.15625,8.0625 -12.01233,-10.51191 -22.30821,-22.97966 -30.15625,-36.875 -16.39874,-29.03476 -21.8066,-63.52517 -18.625,-96.71875 3.1816,-33.19357 14.5728,-65.18517 29.875,-94.8125 17.74222,-34.35158 41.92637,-66.88993 75.78125,-85.5625 16.92744,-9.33629 36.07483,-14.9637 55.40625,-14.9375 z m 270.78125,182.625 C 674.14242,375.22998 675,387.51657 675,400 c 0,151.87831 -123.12169,275 -275,275 -85.29641,0 -161.52774,-38.82999 -211.96875,-99.78125 31.13362,-7.07108 61.56295,-17.22782 90.75,-30.15625 12.76371,9.72047 26.85974,17.69299 41.84375,23.4375 43.15102,16.54306 92.14184,14.14935 135.8125,-0.96875 43.67065,-15.11809 82.39669,-42.25343 116.15625,-73.8125 40.21639,-37.59502 74.12408,-81.90709 99.9375,-130.53125 z"
       transform="translate(0,252.36218)"
       id="path4200"
       inkscape:connector-curvature="0" />
  </g>
  <g
     transform="matrix(0.04333333,0,0,0.04333333,6.666668,-4.2690256)"
     id="layer1-0"
     inkscape:label="Layer 1"
     style="fill:#ffffff;fill-opacity:1">
    <path
       inkscape:connector-curvature="0"
       id="path2993"
       transform="translate(0,252.36218)"
       d="M 400,100 C 234.31458,100 100,234.31458 100,400 100,565.68542 234.31458,700 400,700 565.68542,700 700,565.68542 700,400 700,234.31458 565.68542,100 400,100 Z m 0,25 c 125.96744,0 232.15388,84.69851 264.71875,200.25 -28.04815,57.85233 -67.95864,109.93982 -116.5625,152.03125 -23.34873,20.22023 -48.84084,38.24566 -77,50.9375 -28.15915,12.69184 -59.13218,19.89338 -89.96875,18.125 -23.16814,-1.32862 -46.05453,-7.78235 -66.34375,-19.03125 53.77011,-29.13615 102.28589,-67.98342 142,-114.5 26.06753,-30.53253 48.87464,-65.23184 57.65625,-104.40625 4.39081,-19.58721 5.13488,-40.10062 1.03125,-59.75 -4.10363,-19.64938 -13.18869,-38.3744 -26.9375,-53 -13.43177,-14.28834 -31.06457,-24.40957 -49.96875,-29.625 -18.90419,-5.21543 -39.02156,-5.61917 -58.3125,-2.09375 -38.58188,7.05084 -73.02846,29.47402 -100.65625,57.3125 -48.698,49.06936 -78.80363,118.3072 -73.28125,187.21875 2.76118,34.45577 14.3078,68.31298 34.09375,96.65625 4.41651,6.32662 9.27188,12.35256 14.46875,18.0625 C 226.11357,533.27523 196.26878,540.45584 166,544.5 140.01219,502.50734 125,453.01265 125,400 125,248.12169 248.12169,125 400,125 Z m 1.75,55.5625 c 19.33142,0.0262 38.79415,5.87852 54.21875,17.53125 13.89679,10.49852 24.19392,25.43444 30.03125,41.84375 5.83733,16.4093 7.33536,34.22884 5.34375,51.53125 -3.98322,34.6048 -21.44034,66.34009 -42.53125,94.0625 -37.34406,49.08595 -86.98181,88.37335 -142.1875,115.875 -5.65074,2.81501 -11.39103,5.49065 -17.15625,8.0625 -12.01233,-10.51191 -22.30821,-22.97966 -30.15625,-36.875 -16.39874,-29.03476 -21.8066,-63.52517 -18.625,-96.71875 3.1816,-33.19357 14.5728,-65.18517 29.875,-94.8125 17.74222,-34.35158 41.92637,-66.88993 75.78125,-85.5625 16.92744,-9.33629 36.07483,-14.9637 55.40625,-14.9375 z m 270.78125,182.625 C 674.14242,375.22998 675,387.51657 675,400 c 0,151.87831 -123.12169,275 -275,275 -85.29641,0 -161.52774,-38.82999 -211.96875,-99.78125 31.13362,-7.07108 61.56295,-17.22782 90.75,-30.15625 12.76371,9.72047 26.85974,17.69299 41.84375,23.4375 43.15102,16.54306 92.14184,14.14935 135.8125,-0.96875 43.67065,-15.11809 82.39669,-42.25343 116.15625,-73.8125 40.21639,-37.59502 74.12408,-81.90709 99.9375,-130.53125 z"
       style="fill:#ffffff;fill-opacity:1;stroke:none" />
  </g>
</svg>
