<?xml version="1.0" encoding="UTF-8" standalone="no"?>
<!-- Created with Inkscape (http://www.inkscape.org/) -->

<svg
   xmlns:dc="http://purl.org/dc/elements/1.1/"
   xmlns:cc="http://creativecommons.org/ns#"
   xmlns:rdf="http://www.w3.org/1999/02/22-rdf-syntax-ns#"
   xmlns:svg="http://www.w3.org/2000/svg"
   xmlns="http://www.w3.org/2000/svg"
   xmlns:xlink="http://www.w3.org/1999/xlink"
   xmlns:sodipodi="http://sodipodi.sourceforge.net/DTD/sodipodi-0.dtd"
   xmlns:inkscape="http://www.inkscape.org/namespaces/inkscape"
   version="1.1"
   width="48"
   height="48"
   id="svg4031"
   inkscape:version="0.91 r"
   sodipodi:docname="org_mozilla_firefox_beta.svg">
  <sodipodi:namedview
     pagecolor="#ffffff"
     bordercolor="#666666"
     borderopacity="1"
     objecttolerance="10"
     gridtolerance="10"
     guidetolerance="10"
     inkscape:pageopacity="0"
     inkscape:pageshadow="2"
     inkscape:window-width="1600"
     inkscape:window-height="845"
     id="namedview48"
     showgrid="false"
     showguides="false"
     inkscape:zoom="4.64"
     inkscape:cx="-46.564655"
     inkscape:cy="25.17927"
     inkscape:window-x="0"
     inkscape:window-y="30"
     inkscape:window-maximized="1"
     inkscape:current-layer="svg4031"
     inkscape:snap-to-guides="true" />
  <defs
     id="defs4033">
    <linearGradient
       inkscape:collect="always"
       id="linearGradient4252">
      <stop
         style="stop-color:#70b4d8;stop-opacity:1"
         offset="0"
         id="stop4254" />
      <stop
         style="stop-color:#005e82;stop-opacity:1"
         offset="1"
         id="stop4256" />
    </linearGradient>
    <linearGradient
       id="linearGradient4168">
      <stop
         id="stop4170"
         style="stop-color:#f8b17e;stop-opacity:1"
         offset="0" />
      <stop
         id="stop4172"
         style="stop-color:#e35d4f;stop-opacity:1"
         offset="0.23208089" />
      <stop
         id="stop4174"
         style="stop-color:#c6262e;stop-opacity:1"
         offset="0.5908742" />
      <stop
         id="stop4176"
         style="stop-color:#690b54;stop-opacity:1"
         offset="1" />
    </linearGradient>
    <linearGradient
       id="linearGradient3957">
      <stop
         id="stop3959"
         style="stop-color:#ffffff;stop-opacity:1"
         offset="0" />
      <stop
         id="stop3961"
         style="stop-color:#c1c1c1;stop-opacity:1"
         offset="1" />
    </linearGradient>
    <linearGradient
       id="linearGradient4011">
      <stop
         id="stop4013"
         style="stop-color:#ffffff;stop-opacity:1"
         offset="0" />
      <stop
         id="stop4015"
         style="stop-color:#ffffff;stop-opacity:0.23529412"
         offset="0.507761" />
      <stop
         id="stop4017"
         style="stop-color:#ffffff;stop-opacity:0.15686275"
         offset="0.83456558" />
      <stop
         id="stop4019"
         style="stop-color:#ffffff;stop-opacity:0.39215687"
         offset="1" />
    </linearGradient>
    <linearGradient
       id="linearGradient2867-449-88-871-390-598-476-591-434-148-57-177-3-8">
      <stop
         id="stop3750-8-9"
         style="stop-color:#90dbec;stop-opacity:1"
         offset="0" />
      <stop
         id="stop3752-3-2"
         style="stop-color:#42baea;stop-opacity:1"
         offset="0.26238" />
      <stop
         id="stop3754-7-2"
         style="stop-color:#3689e6;stop-opacity:1"
         offset="0.704952" />
      <stop
         id="stop3756-9-3"
         style="stop-color:#2b63a0;stop-opacity:1"
         offset="1" />
    </linearGradient>
    <linearGradient
       id="linearGradient3820-7-2-1">
      <stop
         id="stop3822-2-6-3"
         style="stop-color:#3d3d3d;stop-opacity:1"
         offset="0" />
      <stop
         id="stop3864-8-7-7"
         style="stop-color:#686868;stop-opacity:0.49803922"
         offset="0.5" />
      <stop
         id="stop3824-1-2-5"
         style="stop-color:#686868;stop-opacity:0"
         offset="1" />
    </linearGradient>
    <linearGradient
       x1="71.204407"
       y1="6.2375584"
       x2="71.204407"
       y2="44.340794"
       id="linearGradient3012"
       xlink:href="#linearGradient4011"
       gradientUnits="userSpaceOnUse"
       gradientTransform="matrix(1.054054,0,0,1.054054,-51.611001,-2.7279009)" />
    <radialGradient
       cx="3.9722471"
       cy="8.4497671"
       r="19.99999"
       fx="3.9722471"
       fy="8.4497671"
       id="radialGradient3015"
       xlink:href="#linearGradient3846"
       gradientUnits="userSpaceOnUse"
       gradientTransform="matrix(0,2.4988347,-2.6434689,-6.8014435e-8,46.336814,-12.180468)" />
    <radialGradient
       cx="99.157013"
       cy="186.17059"
       r="62.769119"
       fx="99.157013"
       fy="186.17059"
       id="radialGradient3018"
       xlink:href="#linearGradient3820-7-2-1"
       gradientUnits="userSpaceOnUse"
       gradientTransform="matrix(0.27083381,0,0,0.08762273,-2.855072,25.187228)" />
    <linearGradient
       x1="27.92535"
       y1="15.149301"
       x2="33.447899"
       y2="22.986004"
       id="linearGradient3951"
       xlink:href="#linearGradient4168"
       gradientUnits="userSpaceOnUse"
       gradientTransform="translate(-37.016949,19.932203)" />
    <linearGradient
       x1="24"
       y1="22"
       x2="24"
       y2="26"
       id="linearGradient3963"
       xlink:href="#linearGradient3957"
       gradientUnits="userSpaceOnUse" />
    <linearGradient
       x1="21.013996"
       y1="25.433903"
       x2="22.805599"
       y2="27.343702"
       id="linearGradient3963-7"
       xlink:href="#linearGradient3957-2"
       gradientUnits="userSpaceOnUse"
       gradientTransform="translate(-19.118644,3.6610169)" />
    <linearGradient
       id="linearGradient3957-2">
      <stop
         id="stop3959-62"
         style="stop-color:#ffffff;stop-opacity:1"
         offset="0" />
      <stop
         id="stop3961-5"
         style="stop-color:#c1c1c1;stop-opacity:1"
         offset="1" />
    </linearGradient>
    <linearGradient
       id="linearGradient3851">
      <stop
         offset="0"
         style="stop-color:#000000;stop-opacity:0.43200001"
         id="stop3853" />
      <stop
         offset="1"
         style="stop-color:#000000;stop-opacity:0.627451"
         id="stop3855" />
    </linearGradient>
    <linearGradient
       gradientTransform="matrix(1,0,0,-1,0,48.519105)"
       gradientUnits="userSpaceOnUse"
       xlink:href="#linearGradient3851"
       id="linearGradient4326"
       y2="36.949589"
       x2="23.06352"
       y1="12.978221"
       x1="23.06352" />
    <linearGradient
       gradientUnits="userSpaceOnUse"
       xlink:href="#linearGradient3851"
       id="linearGradient4320"
       y2="36.949589"
       x2="23.06352"
       y1="12.978221"
       x1="23.06352"
       gradientTransform="translate(0,-1.4930417)" />
    <linearGradient
       gradientUnits="userSpaceOnUse"
       xlink:href="#linearGradient3707-319-631-407-324-616"
       id="linearGradient4273"
       y2="4.9969058"
       x2="19.927404"
       y1="44.949184"
       x1="19.927404"
       gradientTransform="matrix(0.83333322,0,0,0.83333322,3.9999996,3.1666681)" />
    <linearGradient
       id="linearGradient3707-319-631-407-324-616">
      <stop
         offset="0"
         style="stop-color:#505050;stop-opacity:1"
         id="stop3246" />
      <stop
         offset="1"
         style="stop-color:#8e8e8e;stop-opacity:1"
         id="stop3248" />
    </linearGradient>
    <linearGradient
       gradientTransform="translate(-57.362519,-8.0236327)"
       gradientUnits="userSpaceOnUse"
       xlink:href="#linearGradient3924-803"
       id="linearGradient3473"
       y2="43"
       x2="23.99999"
       y1="4.999989"
       x1="23.99999" />
    <linearGradient
       id="linearGradient3924-803">
      <stop
         offset="0"
         style="stop-color:#ffffff;stop-opacity:1"
         id="stop3252" />
      <stop
         offset="0.06316455"
         style="stop-color:#ffffff;stop-opacity:0.23529412"
         id="stop3254" />
      <stop
         offset="0.95056331"
         style="stop-color:#ffffff;stop-opacity:0.15686275"
         id="stop3256" />
      <stop
         offset="1"
         style="stop-color:#ffffff;stop-opacity:0.39215687"
         id="stop3258" />
    </linearGradient>
    <radialGradient
       gradientTransform="matrix(1.8930301e-8,2.2770672,-2.4088655,-4.1952268e-8,-13.008071,-19.524216)"
       gradientUnits="userSpaceOnUse"
       xlink:href="#linearGradient2867-449-88-871-390-598-476-591-434-148-57-177-641"
       id="radialGradient3476"
       fy="8.4497671"
       fx="7.4956832"
       r="19.99999"
       cy="8.4497671"
       cx="7.4956832" />
    <linearGradient
       id="linearGradient2867-449-88-871-390-598-476-591-434-148-57-177-641">
      <stop
         offset="0"
         style="stop-color:#c7c7c7;stop-opacity:1"
         id="stop3236" />
      <stop
         offset="0.26238"
         style="stop-color:#a6a6a6;stop-opacity:1"
         id="stop3238" />
      <stop
         offset="0.704952"
         style="stop-color:#7b7b7b;stop-opacity:1"
         id="stop3240" />
      <stop
         offset="1"
         style="stop-color:#595959;stop-opacity:1"
         id="stop3242" />
    </linearGradient>
    <radialGradient
       gradientTransform="matrix(2.003784,0,0,1.4,27.98813,-17.4)"
       gradientUnits="userSpaceOnUse"
       xlink:href="#linearGradient3688-166-749-2-324"
       id="radialGradient3013-896"
       fy="43.5"
       fx="4.9929786"
       r="2.5"
       cy="43.5"
       cx="4.9929786" />
    <linearGradient
       id="linearGradient3688-166-749-2-324">
      <stop
         offset="0"
         style="stop-color:#181818;stop-opacity:1"
         id="stop3216" />
      <stop
         offset="1"
         style="stop-color:#181818;stop-opacity:0"
         id="stop3218" />
    </linearGradient>
    <radialGradient
       gradientTransform="matrix(2.003784,0,0,1.4,-20.01187,-104.4)"
       gradientUnits="userSpaceOnUse"
       xlink:href="#linearGradient3688-166-749-2-324"
       id="radialGradient3015-826"
       fy="43.5"
       fx="4.9929786"
       r="2.5"
       cy="43.5"
       cx="4.9929786" />
    <linearGradient
       id="linearGradient3702-501-757-6-946">
      <stop
         offset="0"
         style="stop-color:#181818;stop-opacity:0"
         id="stop3228" />
      <stop
         offset="0.5"
         style="stop-color:#181818;stop-opacity:1"
         id="stop3230" />
      <stop
         offset="1"
         style="stop-color:#181818;stop-opacity:0"
         id="stop3232" />
    </linearGradient>
    <linearGradient
       gradientUnits="userSpaceOnUse"
       xlink:href="#linearGradient3702-501-757-6-946"
       id="linearGradient4395"
       y2="39.999443"
       x2="25.058096"
       y1="47.027729"
       x1="25.058096" />
    <linearGradient
       gradientTransform="translate(-16.076816,-9.0236427)"
       gradientUnits="userSpaceOnUse"
       xlink:href="#linearGradient3851"
       id="linearGradient3857"
       y2="44.858185"
       x2="0.85715157"
       y1="5.7142859"
       x1="0.85715157" />
    <radialGradient
       cx="23.896"
       cy="3.99"
       r="20.396999"
       id="radialGradient3093-0-3-6-6"
       gradientUnits="userSpaceOnUse"
       gradientTransform="matrix(0,1.2316483,-1.625754,0,18.486966,-28.721977)">
      <stop
         id="stop3244-9-33-7-0-9"
         style="stop-color:#ffffff;stop-opacity:1"
         offset="0" />
      <stop
         id="stop3246-3-5-0-8-5"
         style="stop-color:#dddddd;stop-opacity:1"
         offset="0.26238" />
      <stop
         id="stop3248-1-7-8-8-1"
         style="stop-color:#abacae;stop-opacity:1"
         offset="0.66093999" />
      <stop
         id="stop3250-9-3-0-5-1"
         style="stop-color:#89898b;stop-opacity:1"
         offset="1" />
    </radialGradient>
    <linearGradient
       id="linearGradient3846">
      <stop
         id="stop3848"
         style="stop-color:#ffe8cb;stop-opacity:1"
         offset="0" />
      <stop
         id="stop3850"
         style="stop-color:#fdc276;stop-opacity:1"
         offset="0.26238" />
      <stop
         id="stop3852"
         style="stop-color:#f9a840;stop-opacity:1"
         offset="0.66093999" />
      <stop
         id="stop3854"
         style="stop-color:#e48b20;stop-opacity:1"
         offset="1" />
    </linearGradient>
    <linearGradient
       id="linearGradient4806-2">
      <stop
         id="stop4808-4"
         style="stop-color:#ffffff;stop-opacity:1"
         offset="0" />
      <stop
         id="stop4810-0"
         style="stop-color:#ffffff;stop-opacity:0.23529412"
         offset="0.42447853" />
      <stop
         id="stop4812-8"
         style="stop-color:#ffffff;stop-opacity:0.15686275"
         offset="0.82089913" />
      <stop
         id="stop4814-0"
         style="stop-color:#ffffff;stop-opacity:0.39215687"
         offset="1" />
    </linearGradient>
    <radialGradient
       cx="4.9929786"
       cy="43.5"
       r="2.5"
       fx="4.9929786"
       fy="43.5"
       id="radialGradient3176"
       xlink:href="#linearGradient3851"
       gradientUnits="userSpaceOnUse"
       gradientTransform="matrix(3.6992923,0,0,2.5772273,28.158275,-51.880679)" />
    <radialGradient
       cx="4.9929786"
       cy="43.5"
       r="2.5"
       fx="4.9929786"
       fy="43.5"
       id="radialGradient3178"
       xlink:href="#linearGradient3851"
       gradientUnits="userSpaceOnUse"
       gradientTransform="matrix(3.6992923,0,0,2.5772273,-13.432878,-172.33801)" />
    <linearGradient
       gradientTransform="matrix(1.8461532,0,0,1.8408765,-23.512105,-19.849426)"
       x1="25.058096"
       y1="47.027729"
       x2="25.058096"
       y2="39.999443"
       id="linearGradient3180"
       xlink:href="#linearGradient3702-4-7"
       gradientUnits="userSpaceOnUse" />
    <linearGradient
       id="linearGradient3702-4-7">
      <stop
         id="stop3704-7-8"
         style="stop-color:#000000;stop-opacity:0"
         offset="0" />
      <stop
         id="stop3710-0-0"
         style="stop-color:#000000;stop-opacity:1"
         offset="0.5" />
      <stop
         id="stop3706-7-2"
         style="stop-color:#000000;stop-opacity:0"
         offset="1" />
    </linearGradient>
    <radialGradient
       cx="676"
       cy="-233.5"
       r="29.5"
       fx="680.40613"
       fy="-249.59378"
       id="radialGradient3037"
       xlink:href="#linearGradient4747-3"
       gradientUnits="userSpaceOnUse"
       gradientTransform="matrix(1.2135399,2.71748e-8,-2.3222332e-8,0.93992419,-797.50331,244.73495)" />
    <linearGradient
       id="linearGradient4747-3">
      <stop
         id="stop4749-7"
         style="stop-color:#ffffff;stop-opacity:1"
         offset="0" />
      <stop
         id="stop9072-8"
         style="stop-color:#f7f7f7;stop-opacity:1"
         offset="0.5" />
      <stop
         id="stop4751-3"
         style="stop-color:#dbe0e1;stop-opacity:1"
         offset="1" />
    </linearGradient>
    <radialGradient
       cx="680.5658"
       cy="365.6579"
       r="12.052631"
       fx="680.60205"
       fy="355.25784"
       id="radialGradient3033"
       xlink:href="#linearGradient9165-59"
       gradientUnits="userSpaceOnUse"
       gradientTransform="matrix(0.89892639,0,0,0.85804127,-584.89522,-296.29104)" />
    <linearGradient
       id="linearGradient9165-59">
      <stop
         id="stop9167-6"
         style="stop-color:#b6c5cc;stop-opacity:1"
         offset="0" />
      <stop
         id="stop9169-9"
         style="stop-color:#e5f0f6;stop-opacity:0"
         offset="1" />
    </linearGradient>
    <radialGradient
       cx="680.5658"
       cy="365.6579"
       r="12.052631"
       fx="681.32629"
       fy="354.21619"
       id="radialGradient3030"
       xlink:href="#linearGradient9165-5-1"
       gradientUnits="userSpaceOnUse"
       gradientTransform="matrix(0.67018853,0,0,0.63970691,-443.61431,-214.00076)" />
    <linearGradient
       id="linearGradient9165-5-1">
      <stop
         id="stop9167-7-12"
         style="stop-color:#acb9bf;stop-opacity:1"
         offset="0" />
      <stop
         id="stop9169-0-4"
         style="stop-color:#acb9bf;stop-opacity:0"
         offset="1" />
    </linearGradient>
    <linearGradient
       x1="20.153708"
       y1="3.0216999"
       x2="20.153708"
       y2="26.666777"
       id="linearGradient3027-6"
       xlink:href="#linearGradient4017-8"
       gradientUnits="userSpaceOnUse"
       gradientTransform="matrix(1.5000314,0,0,1.4444261,-1.1508701,3.5963123)" />
    <linearGradient
       id="linearGradient4017-8">
      <stop
         id="stop4019-8"
         style="stop-color:#ffffff;stop-opacity:1"
         offset="0" />
      <stop
         id="stop4021-4"
         style="stop-color:#ffffff;stop-opacity:0.23529412"
         offset="0.49550432" />
      <stop
         id="stop4023-7"
         style="stop-color:#ffffff;stop-opacity:0.15686275"
         offset="0.88038814" />
      <stop
         id="stop4025-5"
         style="stop-color:#ffffff;stop-opacity:0.39215687"
         offset="1" />
    </linearGradient>
    <radialGradient
       r="20.002001"
       gradientTransform="matrix(0,1.0014,-1.0999,0,-6.531,65.08)"
       cx="21.120001"
       cy="26.141001"
       gradientUnits="userSpaceOnUse"
       fy="22.504"
       id="radialGradient4347">
      <stop
         offset="0"
         stop-color="#ffca51"
         id="stop4349"
         style="stop-color:#ffc77a;stop-opacity:1" />
      <stop
         offset="1"
         stop-color="#ffbb39"
         id="stop4351"
         style="stop-color:#ffbe68;stop-opacity:1" />
    </radialGradient>
    <linearGradient
       id="linearGradient6322"
       y2="44.332001"
       gradientUnits="userSpaceOnUse"
       x2="32.438"
       gradientTransform="matrix(0.97581,0,0,0.97579,-58.703,61.851)"
       y1="8.5398998"
       x1="21.375">
      <stop
         id="stop9946-9"
         stop-color="#de6300"
         offset="0" />
      <stop
         id="stop9944-7"
         stop-color="#d04e00"
         offset="1" />
    </linearGradient>
    <radialGradient
       r="20.002001"
       gradientTransform="matrix(0,1.0014,-1.0999,0,-6.531,65.08)"
       cx="21.120001"
       cy="26.141001"
       gradientUnits="userSpaceOnUse"
       fy="22.504"
       id="radialGradient4347-1">
      <stop
         offset="0"
         stop-color="#ffca51"
         id="stop4349-7"
         style="stop-color:#ffb958;stop-opacity:1" />
      <stop
         style="stop-color:#e28515;stop-opacity:1"
         offset="1"
         stop-color="#ff6201"
         id="stop4355-5" />
    </radialGradient>
    <radialGradient
       id="radialGradient9914"
       fy="22.504"
       gradientUnits="userSpaceOnUse"
       cy="26.141001"
       cx="21.120001"
       gradientTransform="matrix(0,1.0014,-1.0999,0,52.752,3.8498)"
       r="20.002001">
      <stop
         id="stop9910"
         stop-color="#ffca51"
         offset="0" />
      <stop
         id="stop9926"
         stop-color="#ffbb39"
         offset=".39939" />
      <stop
         id="stop9928"
         stop-color="#ff780b"
         offset=".77552" />
      <stop
         id="stop9912"
         stop-color="#ff6201"
         offset="1" />
    </radialGradient>
    <linearGradient
       id="linearGradient9938"
       y2="44.332001"
       gradientUnits="userSpaceOnUse"
       x2="32.438"
       gradientTransform="matrix(0.97581,0,0,0.97579,0.58048,0.62059)"
       y1="8.5398998"
       x1="21.375">
      <stop
         id="stop9946"
         stop-color="#de6300"
         offset="0" />
      <stop
         id="stop9944"
         stop-color="#d04e00"
         offset="1" />
    </linearGradient>
    <linearGradient
       inkscape:collect="always"
       xlink:href="#linearGradient4252"
       id="linearGradient4288"
       x1="24.901535"
       y1="8.4365892"
       x2="24.742846"
       y2="47.839149"
       gradientUnits="userSpaceOnUse"
       gradientTransform="translate(-0.2066556,0.021933)" />
  </defs>
  <metadata
     id="metadata4036">
    <rdf:RDF>
      <cc:Work
         rdf:about="">
        <dc:format>image/svg+xml</dc:format>
        <dc:type
           rdf:resource="http://purl.org/dc/dcmitype/StillImage" />
        <dc:title />
      </cc:Work>
    </rdf:RDF>
  </metadata>
  <path
     inkscape:connector-curvature="0"
     d="m 40.999999,41.499999 a 17,5.4999999 0 1 1 -33.999999,0 17,5.4999999 0 1 1 33.999999,0 z"
     id="path3818-0-5"
     style="fill:url(#radialGradient3018);fill-opacity:1;stroke:none" />
  <path
     inkscape:connector-curvature="0"
     d="M 24.000003,3.4999982 C 12.68881,3.4999982 3.4999996,12.688804 3.4999996,23.999998 3.4999996,35.311192 12.68881,44.500003 24.000003,44.5 35.311191,44.5 44.500011,35.311192 44.5,23.999998 44.5,12.688804 35.311191,3.4999982 24.000003,3.4999982 Z"
     id="path2555"
     style="color:#000000;display:inline;overflow:visible;visibility:visible;fill:url(#radialGradient3015);fill-opacity:1.0;fill-rule:nonzero;stroke:none;stroke-width:1;marker:none;enable-background:accumulate" />
  <path
     style="color:#000000;font-style:normal;font-variant:normal;font-weight:normal;font-stretch:normal;font-size:medium;line-height:normal;font-family:sans-serif;text-indent:0;text-align:start;text-decoration:none;text-decoration-line:none;text-decoration-style:solid;text-decoration-color:#000000;letter-spacing:normal;word-spacing:normal;text-transform:none;direction:ltr;block-progression:tb;writing-mode:lr-tb;baseline-shift:baseline;text-anchor:start;white-space:normal;clip-rule:nonzero;display:inline;overflow:visible;visibility:visible;opacity:0.15;isolation:auto;mix-blend-mode:normal;color-interpolation:sRGB;color-interpolation-filters:linearRGB;solid-color:#000000;solid-opacity:1;fill:#000000;fill-opacity:1;fill-rule:nonzero;stroke:none;stroke-width:2;stroke-linecap:butt;stroke-linejoin:miter;stroke-miterlimit:4;stroke-dasharray:none;stroke-dashoffset:0;stroke-opacity:1;color-rendering:auto;image-rendering:auto;shape-rendering:auto;text-rendering:auto;enable-background:accumulate"
     d="M 31.119141 4.7988281 L 30.675781 5.7148438 C 36.964824 9.3467561 38.556542 17.509995 36.246094 23.839844 C 35.09087 27.004768 32.986447 29.652723 30.080078 31.064453 C 28.115542 32.018701 25.726424 32.365769 22.960938 31.955078 C 23.391668 31.752963 23.902949 31.591824 24.234375 31.345703 C 25.450154 30.44285 26.066706 29.548961 26.759766 29.205078 C 26.675466 29.246898 26.893004 29.172959 27.154297 29.136719 C 27.415589 29.100479 27.739021 29.068689 28.085938 28.984375 C 28.432854 28.900055 28.939594 28.813093 29.265625 28.167969 C 29.428641 27.845407 29.427398 27.433987 29.333984 27.142578 C 29.240564 26.851169 29.091632 26.636152 28.916016 26.425781 C 28.110323 25.460684 27.124893 24.907959 26.138672 24.716797 C 25.152451 24.525635 24.199082 24.664657 23.330078 24.892578 C 21.592069 25.348429 20.007885 26.09375 19.324219 26.09375 C 17.01229 26.09375 16.49213 24.923038 16.539062 24.294922 C 16.562532 23.980864 16.676843 23.790092 16.986328 23.664062 C 17.295813 23.538034 17.933487 23.492601 18.958984 23.992188 L 20.304688 24.648438 L 20.394531 23.154297 C 20.394531 23.154297 20.313101 21.81403 20.101562 20.505859 C 20.469349 20.092976 21.055113 19.691166 21.787109 19.310547 C 22.199757 19.09598 22.621175 18.884788 23.017578 18.601562 C 23.413981 18.318337 23.836594 17.933143 24.007812 17.318359 C 24.116461 16.928317 24.201764 16.616307 24.240234 16.279297 C 24.278704 15.942287 24.271694 15.465043 23.9375 15.058594 C 23.603306 14.652145 23.163525 14.557896 22.833984 14.517578 C 22.504444 14.477258 22.183329 14.481801 21.785156 14.488281 C 20.306131 14.512341 19.565488 14.409881 19.279297 14.277344 C 19.054878 14.173416 18.885144 13.857599 18.660156 13.441406 C 18.670516 13.317426 18.656956 13.166789 18.878906 12.667969 C 19.167392 12.019466 19.732214 11.170033 20.957031 10.398438 L 23.914062 8.5351562 L 20.417969 8.5527344 C 16.865204 8.5699434 15.142775 10.226749 14.550781 10.861328 C 13.974836 10.730335 12.359714 10.523711 10.400391 10.888672 C 9.9602277 10.571982 9.6377633 10.106095 9.3945312 9.6328125 C 8.8833687 10.152393 8.4070175 10.704003 7.953125 11.275391 C 8.3249534 11.829102 8.8087607 12.356078 9.4882812 12.759766 L 9.859375 12.980469 L 10.275391 12.863281 C 12.107695 12.339176 14.582031 12.886719 14.582031 12.886719 L 15.226562 13.046875 L 15.623047 12.513672 C 15.623047 12.513672 16.232214 11.781909 17.460938 11.208984 C 17.334214 11.423994 17.139241 11.656616 17.050781 11.855469 C 16.621688 12.820048 16.595703 13.638672 16.595703 13.638672 L 16.591797 13.880859 L 16.699219 14.099609 C 17.111027 14.928804 17.575271 15.691596 18.439453 16.091797 C 19.303635 16.491998 20.272229 16.513433 21.818359 16.488281 C 21.982105 16.485581 22.029744 16.492641 22.150391 16.494141 C 22.123841 16.60278 22.122151 16.637238 22.082031 16.78125 C 22.096311 16.72997 22.072731 16.8174 21.855469 16.972656 C 21.638166 17.127917 21.277169 17.321898 20.863281 17.537109 C 20.035505 17.967532 18.955365 18.477385 18.236328 19.529297 L 17.980469 19.902344 L 18.091797 20.341797 C 18.282875 21.090354 18.219518 21.218338 18.248047 21.708984 C 17.513596 21.576339 16.821071 21.570835 16.232422 21.810547 C 15.235899 22.216355 14.617924 23.169506 14.544922 24.146484 C 14.398919 26.100442 16.2317 28.09375 19.324219 28.09375 C 20.953819 28.09375 22.421291 27.199676 23.837891 26.828125 C 24.54619 26.64235 25.19613 26.570814 25.757812 26.679688 C 26.055059 26.737308 26.335418 27.043995 26.617188 27.222656 C 26.390373 27.253386 26.175085 27.263237 25.871094 27.414062 C 24.561196 28.06401 23.935565 29.07593 23.041016 29.740234 C 22.146466 30.404539 20.987221 30.931729 18.425781 30.761719 L 17.988281 32.6875 C 23.077465 34.728604 27.504558 34.538377 30.953125 32.863281 C 34.401692 31.188185 36.824259 28.088983 38.125 24.525391 C 39.839497 19.828246 39.605973 14.248835 37.197266 9.7714844 C 41.630734 13.837265 43.380147 19.257938 43.451172 23.863281 C 43.446801 36.036853 33.632566 43.5 23.974609 43.5 C 14.314488 43.5 4.5 36.029264 4.5 23.958984 C 4.5 19.178417 6.3359375 15.763672 6.3359375 15.763672 L 6.4648438 15.523438 L 6.4550781 15.251953 C 6.4302586 14.563893 6.4413888 13.953207 6.4785156 13.408203 C 4.6015256 16.503415 3.5 20.120219 3.5 24 C 3.5 35.311194 12.688807 44.500003 24 44.5 C 35.311188 44.5 44.500011 35.311194 44.5 24 C 44.5 15.19536 38.921475 7.69873 31.119141 4.7988281 z "
     id="path4299" />
  <path
     inkscape:connector-curvature="0"
     d="m 24.000003,3.499998 c -11.311193,0 -20.5000034,9.188806 -20.5000034,20.5 0,11.311194 9.1888104,20.500005 20.5000034,20.500002 11.311188,0 20.500008,-9.188808 20.499997,-20.500002 0,-11.311194 -9.188809,-20.5 -20.499997,-20.5 z"
     id="path2555-6"
     style="color:#000000;display:inline;overflow:visible;visibility:visible;opacity:0.5;fill:#000000;fill-opacity:0;fill-rule:nonzero;stroke:#00537d;stroke-width:1;stroke-linecap:round;stroke-linejoin:round;stroke-miterlimit:4;stroke-dasharray:none;stroke-dashoffset:0;stroke-opacity:1;marker:none;enable-background:accumulate" />
  <path
     inkscape:connector-curvature="0"
     d="m 43.5,23.999308 c 0,10.7699 -8.73109,19.50069 -19.499753,19.50069 -10.769649,0 -19.5002474,-8.730889 -19.5002474,-19.50069 0,-10.769402 8.7305984,-19.4993078 19.5002474,-19.4993078 C 34.76891,4.5000002 43.5,13.229906 43.5,23.999308 l 0,0 z"
     id="path8655"
     style="color:#000000;display:inline;overflow:visible;visibility:visible;opacity:0.5;fill:none;stroke:url(#linearGradient3012);stroke-width:1;stroke-linecap:round;stroke-linejoin:round;stroke-miterlimit:4;stroke-dasharray:none;stroke-dashoffset:0;stroke-opacity:1;marker:none;enable-background:accumulate" />
  <path
     inkscape:connector-curvature="0"
     style="fill:url(#linearGradient4288);fill-opacity:1;stroke:none;stroke-width:1.04915714"
     d="m 7.778742,7.8875375 c 0,0 0.232879,2.8324795 2.2207394,4.0134215 2.2065786,-0.631161 4.8214486,0.01479 4.8214486,0.01479 0,0 1.746464,-2.3452035 5.602364,-2.3638805 -2.78618,1.7552035 -2.828248,4.1037645 -2.828248,4.1037645 0.786549,1.583753 1.181444,1.881954 4.206599,1.832743 1.559208,-0.02538 1.663589,0.05126 1.242814,1.561825 -0.313877,1.127011 -2.9427,1.521324 -3.983465,3.043907 0.417156,1.634224 0.335582,2.999943 0.335582,2.999943 -4.778019,-2.327681 -5.477108,4.000307 -0.07266,4.000307 2.313267,0 6.107168,-3.282298 8.824531,-0.02731 0.992593,1.189023 -1.17987,0.919321 -1.832381,1.24306 -2.002958,0.993829 -2.48804,3.8127 -7.95623,3.44976 C 37.907896,39.599951 44.73933,12.682208 31.176121,4.8494755 40.868324,8.7082375 44.349083,17.134221 44.450841,23.854739 44.450841,36.572832 34.154698,44.5 23.97542,44.5 13.796142,44.5 3.5,36.573042 3.5,23.958616 3.5,18.919329 5.455645,15.288886 5.455645,15.288886 5.229585,9.0219675 7.778459,7.8868765 7.778459,7.8868765 Z"
     id="path10380-0-8" />
  <path
     style="fill:#ffffff;fill-opacity:1;stroke:none;stroke-width:1.04915714;opacity:0.15"
     d="M 31.175781 4.8496094 C 44.73899 12.682342 37.907435 39.599849 18.359375 31.759766 C 23.827565 32.122706 24.313448 29.304376 26.316406 28.310547 C 26.968917 27.986808 29.14103 28.255429 28.148438 27.066406 C 25.431074 23.811418 21.637486 27.09375 19.324219 27.09375 C 13.919771 27.09375 14.618465 20.766069 19.396484 23.09375 C 19.396484 23.09375 19.477703 21.727974 19.060547 20.09375 C 20.101312 18.571167 22.731045 18.177792 23.044922 17.050781 C 23.465697 15.540216 23.359989 15.462901 21.800781 15.488281 C 18.775626 15.537492 18.382252 15.240003 17.595703 13.65625 C 17.595703 13.65625 17.637648 11.307938 20.423828 9.5527344 C 16.567928 9.5714114 14.820312 11.916016 14.820312 11.916016 C 14.820313 11.916016 12.206579 11.26923 10 11.900391 C 8.0121396 10.719449 7.7792969 7.8867188 7.7792969 7.8867188 C 7.7792969 7.8867188 5.2290181 9.022144 5.4550781 15.289062 C 5.4550781 15.289062 3.5 18.919697 3.5 23.958984 C 3.5 36.57341 13.795331 44.5 23.974609 44.5 C 34.153887 44.5 44.451172 36.573562 44.451172 23.855469 C 44.349414 17.134951 40.867984 8.7083714 31.175781 4.8496094 z M 37.197266 9.7714844 C 41.630734 13.837265 43.380147 19.257938 43.451172 23.863281 C 43.446801 36.036853 33.632566 43.5 23.974609 43.5 C 14.314488 43.5 4.5 36.029264 4.5 23.958984 C 4.5 19.178417 6.3359375 15.763672 6.3359375 15.763672 A 1.0001 1.0001 0 0 0 6.4550781 15.251953 C 6.3551301 12.481147 6.8301078 10.947466 7.2949219 10.029297 C 7.6703961 10.984802 8.3027025 12.055441 9.4882812 12.759766 A 1.0001 1.0001 0 0 0 10.275391 12.863281 C 12.107695 12.339176 14.582031 12.886719 14.582031 12.886719 A 1.0001 1.0001 0 0 0 15.623047 12.513672 C 15.623047 12.513672 16.232214 11.781909 17.460938 11.208984 C 17.334214 11.423994 17.139241 11.656616 17.050781 11.855469 C 16.621688 12.820048 16.595703 13.638672 16.595703 13.638672 A 1.0001 1.0001 0 0 0 16.699219 14.099609 C 17.111027 14.928804 17.575271 15.691596 18.439453 16.091797 C 19.303635 16.491998 20.272229 16.513433 21.818359 16.488281 C 21.982105 16.485581 22.029744 16.492641 22.150391 16.494141 C 22.123841 16.60278 22.122151 16.637238 22.082031 16.78125 C 22.096311 16.72997 22.072731 16.8174 21.855469 16.972656 C 21.638166 17.127917 21.277169 17.321898 20.863281 17.537109 C 20.035505 17.967532 18.955365 18.477385 18.236328 19.529297 A 1.0001 1.0001 0 0 0 18.091797 20.341797 C 18.282875 21.090354 18.219518 21.218338 18.248047 21.708984 C 17.513596 21.576339 16.821071 21.570835 16.232422 21.810547 C 15.235899 22.216355 14.617924 23.169506 14.544922 24.146484 C 14.398919 26.100442 16.2317 28.09375 19.324219 28.09375 C 20.953819 28.09375 22.421291 27.199676 23.837891 26.828125 C 24.54619 26.64235 25.196129 26.570814 25.757812 26.679688 C 26.055059 26.737308 26.335418 27.043995 26.617188 27.222656 C 26.390373 27.253386 26.175085 27.263237 25.871094 27.414062 C 24.561196 28.06401 23.935565 29.07593 23.041016 29.740234 C 22.146466 30.404539 20.987221 30.931729 18.425781 30.761719 A 1.0001 1.0001 0 0 0 17.988281 32.6875 C 23.077465 34.728604 27.504558 34.538377 30.953125 32.863281 C 34.401692 31.188185 36.824259 28.088983 38.125 24.525391 C 39.839497 19.828246 39.605973 14.248835 37.197266 9.7714844 z "
     id="path4290" />
</svg>
