<?xml version="1.0" encoding="UTF-8" standalone="no"?>
<!-- Created with Inkscape (http://www.inkscape.org/) -->

<svg
   xmlns:dc="http://purl.org/dc/elements/1.1/"
   xmlns:cc="http://creativecommons.org/ns#"
   xmlns:rdf="http://www.w3.org/1999/02/22-rdf-syntax-ns#"
   xmlns:svg="http://www.w3.org/2000/svg"
   xmlns="http://www.w3.org/2000/svg"
   xmlns:xlink="http://www.w3.org/1999/xlink"
   xmlns:sodipodi="http://sodipodi.sourceforge.net/DTD/sodipodi-0.dtd"
   xmlns:inkscape="http://www.inkscape.org/namespaces/inkscape"
   version="1.1"
   width="48"
   height="48"
   id="svg4031"
   inkscape:version="0.91 r"
   sodipodi:docname="org_mozilla_fennec_fdroid.svg">
  <sodipodi:namedview
     pagecolor="#ffffff"
     bordercolor="#666666"
     borderopacity="1"
     objecttolerance="10"
     gridtolerance="10"
     guidetolerance="10"
     inkscape:pageopacity="0"
     inkscape:pageshadow="2"
     inkscape:window-width="1535"
     inkscape:window-height="876"
     id="namedview48"
     showgrid="false"
     inkscape:zoom="1"
     inkscape:cx="10.177812"
     inkscape:cy="42.292683"
     inkscape:window-x="65"
     inkscape:window-y="24"
     inkscape:window-maximized="1"
     inkscape:current-layer="svg4031" />
  <defs
     id="defs4033">
    <linearGradient
       id="linearGradient4168">
      <stop
         id="stop4170"
         style="stop-color:#f8b17e;stop-opacity:1"
         offset="0" />
      <stop
         id="stop4172"
         style="stop-color:#e35d4f;stop-opacity:1"
         offset="0.23208089" />
      <stop
         id="stop4174"
         style="stop-color:#c6262e;stop-opacity:1"
         offset="0.5908742" />
      <stop
         id="stop4176"
         style="stop-color:#690b54;stop-opacity:1"
         offset="1" />
    </linearGradient>
    <linearGradient
       id="linearGradient3957">
      <stop
         id="stop3959"
         style="stop-color:#ffffff;stop-opacity:1"
         offset="0" />
      <stop
         id="stop3961"
         style="stop-color:#c1c1c1;stop-opacity:1"
         offset="1" />
    </linearGradient>
    <linearGradient
       id="linearGradient4011">
      <stop
         id="stop4013"
         style="stop-color:#ffffff;stop-opacity:1"
         offset="0" />
      <stop
         id="stop4015"
         style="stop-color:#ffffff;stop-opacity:0.23529412"
         offset="0.507761" />
      <stop
         id="stop4017"
         style="stop-color:#ffffff;stop-opacity:0.15686275"
         offset="0.83456558" />
      <stop
         id="stop4019"
         style="stop-color:#ffffff;stop-opacity:0.39215687"
         offset="1" />
    </linearGradient>
    <linearGradient
       id="linearGradient2867-449-88-871-390-598-476-591-434-148-57-177-3-8">
      <stop
         id="stop3750-8-9"
         style="stop-color:#90dbec;stop-opacity:1"
         offset="0" />
      <stop
         id="stop3752-3-2"
         style="stop-color:#42baea;stop-opacity:1"
         offset="0.26238" />
      <stop
         id="stop3754-7-2"
         style="stop-color:#3689e6;stop-opacity:1"
         offset="0.704952" />
      <stop
         id="stop3756-9-3"
         style="stop-color:#2b63a0;stop-opacity:1"
         offset="1" />
    </linearGradient>
    <linearGradient
       id="linearGradient3820-7-2-1">
      <stop
         id="stop3822-2-6-3"
         style="stop-color:#3d3d3d;stop-opacity:1"
         offset="0" />
      <stop
         id="stop3864-8-7-7"
         style="stop-color:#686868;stop-opacity:0.49803922"
         offset="0.5" />
      <stop
         id="stop3824-1-2-5"
         style="stop-color:#686868;stop-opacity:0"
         offset="1" />
    </linearGradient>
    <linearGradient
       x1="71.204407"
       y1="6.2375584"
       x2="71.204407"
       y2="44.340794"
       id="linearGradient3012"
       xlink:href="#linearGradient4011"
       gradientUnits="userSpaceOnUse"
       gradientTransform="matrix(1.054054,0,0,1.054054,-51.611001,-2.7279009)" />
    <radialGradient
       cx="3.9722471"
       cy="8.4497671"
       r="19.99999"
       fx="3.9722471"
       fy="8.4497671"
       id="radialGradient3015"
       xlink:href="#linearGradient2867-449-88-871-390-598-476-591-434-148-57-177-3-8"
       gradientUnits="userSpaceOnUse"
       gradientTransform="matrix(0,2.4988347,-2.6434689,-6.8014435e-8,46.336814,-12.180468)" />
    <radialGradient
       cx="99.157013"
       cy="186.17059"
       r="62.769119"
       fx="99.157013"
       fy="186.17059"
       id="radialGradient3018"
       xlink:href="#linearGradient3820-7-2-1"
       gradientUnits="userSpaceOnUse"
       gradientTransform="matrix(0.27083381,0,0,0.08762273,-2.855072,25.187228)" />
    <linearGradient
       x1="27.92535"
       y1="15.149301"
       x2="33.447899"
       y2="22.986004"
       id="linearGradient3951"
       xlink:href="#linearGradient4168"
       gradientUnits="userSpaceOnUse" />
    <linearGradient
       x1="24"
       y1="22"
       x2="24"
       y2="26"
       id="linearGradient3963"
       xlink:href="#linearGradient3957"
       gradientUnits="userSpaceOnUse" />
    <linearGradient
       x1="21.013996"
       y1="25.433903"
       x2="22.805599"
       y2="27.343702"
       id="linearGradient3963-7"
       xlink:href="#linearGradient3957-2"
       gradientUnits="userSpaceOnUse" />
    <linearGradient
       id="linearGradient3957-2">
      <stop
         id="stop3959-62"
         style="stop-color:#ffffff;stop-opacity:1"
         offset="0" />
      <stop
         id="stop3961-5"
         style="stop-color:#c1c1c1;stop-opacity:1"
         offset="1" />
    </linearGradient>
    <linearGradient
       id="linearGradient3877-6-8">
      <stop
         style="stop-color:#effffc;stop-opacity:1;"
         offset="0"
         id="stop3879-8-6" />
      <stop
         style="stop-color:#ffffff;stop-opacity:1;"
         offset="1"
         id="stop3881-8-6" />
    </linearGradient>
    <linearGradient
       gradientTransform="translate(-38.253053,-7.1128034)"
       gradientUnits="userSpaceOnUse"
       xlink:href="#linearGradient3924-3"
       id="linearGradient4181"
       y2="43"
       x2="23.99999"
       y1="4.999989"
       x1="23.99999" />
    <linearGradient
       id="linearGradient3924-3">
      <stop
         offset="0"
         style="stop-color:#ffffff;stop-opacity:1"
         id="stop3926-7" />
      <stop
         offset="0.06316455"
         style="stop-color:#ffffff;stop-opacity:0.23529412"
         id="stop3928-3" />
      <stop
         offset="0.95056331"
         style="stop-color:#ffffff;stop-opacity:0.15686275"
         id="stop3930-7" />
      <stop
         offset="1"
         style="stop-color:#ffffff;stop-opacity:0.39215687"
         id="stop3932-1" />
    </linearGradient>
    <linearGradient
       gradientTransform="matrix(0.7037037,0,0,0.7037037,-39.333369,2.4814295)"
       gradientUnits="userSpaceOnUse"
       xlink:href="#linearGradient5803-2-7"
       id="linearGradient4907-4"
       y2="54.780239"
       x2="167.98311"
       y1="8.50811"
       x1="167.98311" />
    <linearGradient
       id="linearGradient5803-2-7">
      <stop
         offset="0"
         style="stop-color:#fffdf3;stop-opacity:1"
         id="stop5805-3-6" />
      <stop
         offset="1"
         style="stop-color:#fbebeb;stop-opacity:1"
         id="stop5807-0-0" />
    </linearGradient>
    <radialGradient
       gradientTransform="matrix(0,6.6677582,-8.1858766,0,67.629842,-67.575579)"
       gradientUnits="userSpaceOnUse"
       xlink:href="#linearGradient3242"
       id="radialGradient6305"
       fy="9.9941158"
       fx="8.276144"
       r="12.671875"
       cy="9.9941158"
       cx="8.276144" />
    <linearGradient
       id="linearGradient3242">
      <stop
         offset="0"
         style="stop-color:#f89b7e;stop-opacity:1"
         id="stop3244" />
      <stop
         offset="0.26238"
         style="stop-color:#e35d4f;stop-opacity:1"
         id="stop3246" />
      <stop
         offset="0.66093999"
         style="stop-color:#c6262e;stop-opacity:1"
         id="stop3248" />
      <stop
         offset="1"
         style="stop-color:#690b2c;stop-opacity:1"
         id="stop3250" />
    </linearGradient>
    <radialGradient
       gradientTransform="matrix(2.003784,0,0,1.4,38.296783,-27.302742)"
       gradientUnits="userSpaceOnUse"
       xlink:href="#linearGradient3688-166-749"
       id="radialGradient3013"
       fy="43.5"
       fx="4.9929786"
       r="2.5"
       cy="43.5"
       cx="4.9929786" />
    <linearGradient
       id="linearGradient3688-166-749">
      <stop
         offset="0"
         style="stop-color:#181818;stop-opacity:1"
         id="stop2883" />
      <stop
         offset="1"
         style="stop-color:#181818;stop-opacity:0"
         id="stop2885" />
    </linearGradient>
    <radialGradient
       gradientTransform="matrix(2.003784,0,0,1.4,-30.320523,-94.497258)"
       gradientUnits="userSpaceOnUse"
       xlink:href="#linearGradient3688-166-749"
       id="radialGradient3015-1"
       fy="43.5"
       fx="4.9929786"
       r="2.5"
       cy="43.5"
       cx="4.9929786" />
    <linearGradient
       id="linearGradient3702-501-757">
      <stop
         offset="0"
         style="stop-color:#181818;stop-opacity:0"
         id="stop2895" />
      <stop
         offset="0.5"
         style="stop-color:#181818;stop-opacity:1"
         id="stop2897" />
      <stop
         offset="1"
         style="stop-color:#181818;stop-opacity:0"
         id="stop2899" />
    </linearGradient>
    <linearGradient
       gradientUnits="userSpaceOnUse"
       xlink:href="#linearGradient3702-501-757"
       id="linearGradient3141"
       y2="39.999443"
       x2="25.058096"
       y1="47.027729"
       x1="25.058096"
       gradientTransform="translate(10.308653,-9.9027416)" />
    <linearGradient
       x1="71.204407"
       y1="6.2375584"
       x2="71.204407"
       y2="44.340794"
       id="linearGradient3012-7"
       xlink:href="#linearGradient4011"
       gradientUnits="userSpaceOnUse"
       gradientTransform="matrix(1.054054,0,0,1.054054,-107.94998,-3.5251767)" />
    <radialGradient
       cx="3.9722471"
       cy="8.4497671"
       r="19.99999"
       fx="3.9722471"
       fy="8.4497671"
       id="radialGradient3015-0"
       xlink:href="#linearGradient2867-449-88-871-390-598-476-591-434-148-57-177-3-8"
       gradientUnits="userSpaceOnUse"
       gradientTransform="matrix(0,2.4988347,-2.6434689,-6.8014435e-8,-10.002169,-12.977744)" />
    <radialGradient
       cx="99.157013"
       cy="186.17059"
       r="62.769119"
       fx="99.157013"
       fy="186.17059"
       id="radialGradient3018-6"
       xlink:href="#linearGradient3820-7-2-1"
       gradientUnits="userSpaceOnUse"
       gradientTransform="matrix(0.27083381,0,0,0.08762273,-59.194055,24.389952)" />
    <linearGradient
       x1="27.92535"
       y1="15.149301"
       x2="33.447899"
       y2="22.986004"
       id="linearGradient4294"
       xlink:href="#linearGradient4168"
       gradientUnits="userSpaceOnUse" />
    <linearGradient
       x1="24"
       y1="22"
       x2="24"
       y2="26"
       id="linearGradient4296"
       xlink:href="#linearGradient3957"
       gradientUnits="userSpaceOnUse" />
    <linearGradient
       x1="21.013996"
       y1="25.433903"
       x2="22.805599"
       y2="27.343702"
       id="linearGradient4298"
       xlink:href="#linearGradient3957"
       gradientUnits="userSpaceOnUse" />
  </defs>
  <metadata
     id="metadata4036">
    <rdf:RDF>
      <cc:Work
         rdf:about="">
        <dc:format>image/svg+xml</dc:format>
        <dc:type
           rdf:resource="http://purl.org/dc/dcmitype/StillImage" />
        <dc:title></dc:title>
      </cc:Work>
    </rdf:RDF>
  </metadata>
  <path
     d="m 40.999999,41.499999 a 17,5.4999999 0 1 1 -33.999999,0 17,5.4999999 0 1 1 33.999999,0 z"
     id="path3818-0-5"
     style="fill:url(#radialGradient3018);fill-opacity:1;stroke:none" />
  <path
     d="M 24.000003,3.4999982 C 12.68881,3.4999982 3.4999996,12.688804 3.4999996,23.999998 3.4999996,35.311192 12.68881,44.500003 24.000003,44.5 35.311191,44.5 44.500011,35.311192 44.5,23.999998 44.5,12.688804 35.311191,3.4999982 24.000003,3.4999982 z"
     id="path2555"
     style="color:#000000;fill:url(#radialGradient3015);fill-opacity:1;fill-rule:nonzero;stroke:none;stroke-width:1;marker:none;visibility:visible;display:inline;overflow:visible;enable-background:accumulate" />
  <path
     d="m 43.5,23.999308 c 0,10.7699 -8.73109,19.50069 -19.499753,19.50069 -10.769649,0 -19.5002474,-8.730889 -19.5002474,-19.50069 0,-10.769402 8.7305984,-19.4993078 19.5002474,-19.4993078 C 34.76891,4.5000002 43.5,13.229906 43.5,23.999308 l 0,0 z"
     id="path8655"
     style="opacity:0.5;color:#000000;fill:none;stroke:url(#linearGradient3012);stroke-width:1;stroke-linecap:round;stroke-linejoin:round;stroke-miterlimit:4;stroke-opacity:1;stroke-dasharray:none;stroke-dashoffset:0;marker:none;visibility:visible;display:inline;overflow:visible;enable-background:accumulate" />
  <path
     d="m 24.000003,3.499998 c -11.311193,0 -20.5000034,9.188806 -20.5000034,20.5 0,11.311194 9.1888104,20.500005 20.5000034,20.500002 11.311188,0 20.500008,-9.188808 20.499997,-20.500002 0,-11.311194 -9.188809,-20.5 -20.499997,-20.5 z"
     id="path2555-6"
     style="opacity:0.5;color:#000000;fill:#000000;fill-opacity:0;fill-rule:nonzero;stroke:#00537d;stroke-width:1;stroke-linecap:round;stroke-linejoin:round;stroke-miterlimit:4;stroke-opacity:1;stroke-dasharray:none;stroke-dashoffset:0;marker:none;visibility:visible;display:inline;overflow:visible;enable-background:accumulate" />
  <path
     d="m 23.318541,24.731857 a 1,1 0 0 1 0.678908,-1.731854 L 24,24 z"
     id="path3953"
     style="opacity:0.05;color:#000000;fill:#ffffff;fill-opacity:1;fill-rule:nonzero;stroke:none;stroke-width:1;marker:none;visibility:visible;display:inline;overflow:visible;enable-background:accumulate" />
  <path
     inkscape:connector-curvature="0"
     id="path4230"
     d="m 23.745906,33.917319 c -0.238519,-0.123915 -0.267755,-0.212547 -0.33527,-1.016205 -0.215518,-2.565455 -0.921885,-4.254083 -1.901217,-4.54502 -0.322049,-0.09568 -0.487061,-0.08476 -0.931502,0.06161 l -0.540124,0.177887 0.06029,0.50484 c 0.03316,0.277662 0.155615,0.657765 0.272111,0.844675 0.265515,0.425984 0.902766,0.699707 1.409527,0.605441 l 0.359628,-0.06689 -0.205155,0.398739 c -0.112833,0.219306 -0.284544,0.672884 -0.381576,1.007953 -0.09704,0.335067 -0.186812,0.621301 -0.199495,0.636075 -0.01268,0.01478 -0.462298,-0.17528 -0.999136,-0.42234 -0.996047,-0.458397 -2.87379,-1.176667 -3.661004,-1.400397 -0.240561,-0.06837 -0.435958,-0.151483 -0.434212,-0.184693 0.0015,-0.03322 0.218451,-0.221108 0.481549,-0.417549 1.062759,-0.793496 2.501589,-2.169984 2.904294,-2.778453 0.233014,-0.352078 0.512222,-0.922394 0.620456,-1.267369 0.181461,-0.578362 0.185176,-0.676612 0.04768,-1.261122 -0.169493,-0.720416 -0.723701,-1.871621 -1.227852,-2.550506 -0.483995,-0.651746 -1.938036,-2.022784 -2.726371,-2.570729 -1.266986,-0.880647 -3.032958,-1.767153 -4.709945,-2.364363 l -0.74769,-0.266267 0.06412,0.27899 c 0.0353,0.153445 0.218303,0.74483 0.406715,1.314188 1.166063,3.52367 3.722565,6.639188 6.714377,8.182568 0.464914,0.239835 0.845303,0.471068 0.845303,0.513851 0,0.04279 -0.128427,0.199789 -0.285384,0.3489 l -0.285391,0.27111 -0.811137,-0.45841 C 15.900771,26.562069 14.40226,25.36335 13.304309,24.097942 11.450982,21.961935 9.9276644,18.937344 9.1603714,15.87003 c -0.111742,-0.44669 -0.181344,-0.833796 -0.154679,-0.860237 0.0749,-0.07427 1.5322866,0.286546 2.6186816,0.64832 3.431911,1.14284 6.395828,3.058273 8.261957,5.339294 0.416074,0.508577 1.366575,1.830662 1.456849,2.02637 0.0037,0.008 0.33093,-0.06967 0.727157,-0.1727 1.01397,-0.263673 2.654278,-0.261463 3.704973,0.005 0.442635,0.112253 0.817998,0.204096 0.834138,0.204096 0.01614,0 0.31975,-0.424774 0.674691,-0.94394 0.916762,-1.340924 2.736622,-3.118093 4.141713,-4.044551 1.907164,-1.257499 3.812684,-2.119301 6.022227,-2.723642 C 38.933553,14.9417 39,14.934989 39,15.191298 c 0,0.401937 -0.543153,2.250675 -0.992665,3.378742 -1.684188,4.22654 -4.134903,7.066705 -7.866614,9.11673 l -0.677465,0.372171 -0.22305,-0.23542 c -0.122679,-0.129482 -0.223049,-0.264577 -0.223049,-0.300213 0,-0.03564 0.377029,-0.25929 0.837845,-0.497008 2.661398,-1.37293 4.831262,-3.874113 6.051375,-6.975365 0.421189,-1.070572 0.861879,-2.632036 0.808985,-2.866425 -0.04068,-0.180294 -2.136802,0.637048 -3.542688,1.381408 -2.147946,1.137242 -3.853278,2.583355 -4.862945,4.123734 -0.506893,0.77334 -1.042139,2.139523 -1.042139,2.660008 0,0.345076 0.74077,1.748937 1.27824,2.422434 0.45582,0.571191 1.908897,1.893739 2.656092,2.417504 0.211059,0.147944 0.38473,0.296161 0.385939,0.329372 0.0015,0.03322 -0.194631,0.118436 -0.435199,0.189391 -0.74155,0.21872 -2.233827,0.820006 -3.462733,1.395245 -0.645071,0.301953 -1.182785,0.549004 -1.194924,0.549004 -0.01216,0 -0.04989,-0.233151 -0.08396,-0.518114 -0.03405,-0.284961 -0.179427,-0.772685 -0.323081,-1.083831 -0.143661,-0.311145 -0.261204,-0.580241 -0.261204,-0.597994 0,-0.01775 0.157082,-0.007 0.349067,0.02389 0.774376,0.124603 1.489859,-0.383636 1.716867,-1.219558 0.142342,-0.524145 0.05837,-0.675962 -0.476729,-0.86176 -0.606674,-0.21066 -1.051365,-0.08769 -1.551441,0.428987 -0.632668,0.653682 -1.106323,2.195508 -1.237529,4.02834 -0.05896,0.823452 -0.08226,0.894574 -0.341535,1.042126 -0.236529,0.134603 -0.317465,0.137994 -0.539571,0.02261 z"
     style="fill:none;fill-opacity:1;stroke:#000000;stroke-opacity:1;stroke-width:2;stroke-miterlimit:4;stroke-dasharray:none;stroke-linejoin:round;stroke-linecap:round;opacity:0.15" />
  <path
     style="fill:none;fill-opacity:1;stroke:#000000;stroke-opacity:1;stroke-width:1;stroke-miterlimit:4;stroke-dasharray:none;stroke-linejoin:round;stroke-linecap:round;opacity:0.15"
     d="m 23.745906,33.917319 c -0.238519,-0.123915 -0.267755,-0.212547 -0.33527,-1.016205 -0.215518,-2.565455 -0.921885,-4.254083 -1.901217,-4.54502 -0.322049,-0.09568 -0.487061,-0.08476 -0.931502,0.06161 l -0.540124,0.177887 0.06029,0.50484 c 0.03316,0.277662 0.155615,0.657765 0.272111,0.844675 0.265515,0.425984 0.902766,0.699707 1.409527,0.605441 l 0.359628,-0.06689 -0.205155,0.398739 c -0.112833,0.219306 -0.284544,0.672884 -0.381576,1.007953 -0.09704,0.335067 -0.186812,0.621301 -0.199495,0.636075 -0.01268,0.01478 -0.462298,-0.17528 -0.999136,-0.42234 -0.996047,-0.458397 -2.87379,-1.176667 -3.661004,-1.400397 -0.240561,-0.06837 -0.435958,-0.151483 -0.434212,-0.184693 0.0015,-0.03322 0.218451,-0.221108 0.481549,-0.417549 1.062759,-0.793496 2.501589,-2.169984 2.904294,-2.778453 0.233014,-0.352078 0.512222,-0.922394 0.620456,-1.267369 0.181461,-0.578362 0.185176,-0.676612 0.04768,-1.261122 -0.169493,-0.720416 -0.723701,-1.871621 -1.227852,-2.550506 -0.483995,-0.651746 -1.938036,-2.022784 -2.726371,-2.570729 -1.266986,-0.880647 -3.032958,-1.767153 -4.709945,-2.364363 l -0.74769,-0.266267 0.06412,0.27899 c 0.0353,0.153445 0.218303,0.74483 0.406715,1.314188 1.166063,3.52367 3.722565,6.639188 6.714377,8.182568 0.464914,0.239835 0.845303,0.471068 0.845303,0.513851 0,0.04279 -0.128427,0.199789 -0.285384,0.3489 l -0.285391,0.27111 -0.811137,-0.45841 C 15.900771,26.562069 14.40226,25.36335 13.304309,24.097942 11.450982,21.961935 9.9276644,18.937344 9.1603714,15.87003 c -0.111742,-0.44669 -0.181344,-0.833796 -0.154679,-0.860237 0.0749,-0.07427 1.5322866,0.286546 2.6186816,0.64832 3.431911,1.14284 6.395828,3.058273 8.261957,5.339294 0.416074,0.508577 1.366575,1.830662 1.456849,2.02637 0.0037,0.008 0.33093,-0.06967 0.727157,-0.1727 1.01397,-0.263673 2.654278,-0.261463 3.704973,0.005 0.442635,0.112253 0.817998,0.204096 0.834138,0.204096 0.01614,0 0.31975,-0.424774 0.674691,-0.94394 0.916762,-1.340924 2.736622,-3.118093 4.141713,-4.044551 1.907164,-1.257499 3.812684,-2.119301 6.022227,-2.723642 C 38.933553,14.9417 39,14.934989 39,15.191298 c 0,0.401937 -0.543153,2.250675 -0.992665,3.378742 -1.684188,4.22654 -4.134903,7.066705 -7.866614,9.11673 l -0.677465,0.372171 -0.22305,-0.23542 c -0.122679,-0.129482 -0.223049,-0.264577 -0.223049,-0.300213 0,-0.03564 0.377029,-0.25929 0.837845,-0.497008 2.661398,-1.37293 4.831262,-3.874113 6.051375,-6.975365 0.421189,-1.070572 0.861879,-2.632036 0.808985,-2.866425 -0.04068,-0.180294 -2.136802,0.637048 -3.542688,1.381408 -2.147946,1.137242 -3.853278,2.583355 -4.862945,4.123734 -0.506893,0.77334 -1.042139,2.139523 -1.042139,2.660008 0,0.345076 0.74077,1.748937 1.27824,2.422434 0.45582,0.571191 1.908897,1.893739 2.656092,2.417504 0.211059,0.147944 0.38473,0.296161 0.385939,0.329372 0.0015,0.03322 -0.194631,0.118436 -0.435199,0.189391 -0.74155,0.21872 -2.233827,0.820006 -3.462733,1.395245 -0.645071,0.301953 -1.182785,0.549004 -1.194924,0.549004 -0.01216,0 -0.04989,-0.233151 -0.08396,-0.518114 -0.03405,-0.284961 -0.179427,-0.772685 -0.323081,-1.083831 -0.143661,-0.311145 -0.261204,-0.580241 -0.261204,-0.597994 0,-0.01775 0.157082,-0.007 0.349067,0.02389 0.774376,0.124603 1.489859,-0.383636 1.716867,-1.219558 0.142342,-0.524145 0.05837,-0.675962 -0.476729,-0.86176 -0.606674,-0.21066 -1.051365,-0.08769 -1.551441,0.428987 -0.632668,0.653682 -1.106323,2.195508 -1.237529,4.02834 -0.05896,0.823452 -0.08226,0.894574 -0.341535,1.042126 -0.236529,0.134603 -0.317465,0.137994 -0.539571,0.02261 z"
     id="path4232"
     inkscape:connector-curvature="0" />
  <path
     style="fill:#ffffff;fill-opacity:1"
     d="m 23.745906,33.917319 c -0.238519,-0.123915 -0.267755,-0.212547 -0.33527,-1.016205 -0.215518,-2.565455 -0.921885,-4.254083 -1.901217,-4.54502 -0.322049,-0.09568 -0.487061,-0.08476 -0.931502,0.06161 l -0.540124,0.177887 0.06029,0.50484 c 0.03316,0.277662 0.155615,0.657765 0.272111,0.844675 0.265515,0.425984 0.902766,0.699707 1.409527,0.605441 l 0.359628,-0.06689 -0.205155,0.398739 c -0.112833,0.219306 -0.284544,0.672884 -0.381576,1.007953 -0.09704,0.335067 -0.186812,0.621301 -0.199495,0.636075 -0.01268,0.01478 -0.462298,-0.17528 -0.999136,-0.42234 -0.996047,-0.458397 -2.87379,-1.176667 -3.661004,-1.400397 -0.240561,-0.06837 -0.435958,-0.151483 -0.434212,-0.184693 0.0015,-0.03322 0.218451,-0.221108 0.481549,-0.417549 1.062759,-0.793496 2.501589,-2.169984 2.904294,-2.778453 0.233014,-0.352078 0.512222,-0.922394 0.620456,-1.267369 0.181461,-0.578362 0.185176,-0.676612 0.04768,-1.261122 -0.169493,-0.720416 -0.723701,-1.871621 -1.227852,-2.550506 -0.483995,-0.651746 -1.938036,-2.022784 -2.726371,-2.570729 -1.266986,-0.880647 -3.032958,-1.767153 -4.709945,-2.364363 l -0.74769,-0.266267 0.06412,0.27899 c 0.0353,0.153445 0.218303,0.74483 0.406715,1.314188 1.166063,3.52367 3.722565,6.639188 6.714377,8.182568 0.464914,0.239835 0.845303,0.471068 0.845303,0.513851 0,0.04279 -0.128427,0.199789 -0.285384,0.3489 l -0.285391,0.27111 -0.811137,-0.45841 C 15.900771,26.562069 14.40226,25.36335 13.304309,24.097942 11.450982,21.961935 9.9276644,18.937344 9.1603714,15.87003 c -0.111742,-0.44669 -0.181344,-0.833796 -0.154679,-0.860237 0.0749,-0.07427 1.5322866,0.286546 2.6186816,0.64832 3.431911,1.14284 6.395828,3.058273 8.261957,5.339294 0.416074,0.508577 1.366575,1.830662 1.456849,2.02637 0.0037,0.008 0.33093,-0.06967 0.727157,-0.1727 1.01397,-0.263673 2.654278,-0.261463 3.704973,0.005 0.442635,0.112253 0.817998,0.204096 0.834138,0.204096 0.01614,0 0.31975,-0.424774 0.674691,-0.94394 0.916762,-1.340924 2.736622,-3.118093 4.141713,-4.044551 1.907164,-1.257499 3.812684,-2.119301 6.022227,-2.723642 C 38.933553,14.9417 39,14.934989 39,15.191298 c 0,0.401937 -0.543153,2.250675 -0.992665,3.378742 -1.684188,4.22654 -4.134903,7.066705 -7.866614,9.11673 l -0.677465,0.372171 -0.22305,-0.23542 c -0.122679,-0.129482 -0.223049,-0.264577 -0.223049,-0.300213 0,-0.03564 0.377029,-0.25929 0.837845,-0.497008 2.661398,-1.37293 4.831262,-3.874113 6.051375,-6.975365 0.421189,-1.070572 0.861879,-2.632036 0.808985,-2.866425 -0.04068,-0.180294 -2.136802,0.637048 -3.542688,1.381408 -2.147946,1.137242 -3.853278,2.583355 -4.862945,4.123734 -0.506893,0.77334 -1.042139,2.139523 -1.042139,2.660008 0,0.345076 0.74077,1.748937 1.27824,2.422434 0.45582,0.571191 1.908897,1.893739 2.656092,2.417504 0.211059,0.147944 0.38473,0.296161 0.385939,0.329372 0.0015,0.03322 -0.194631,0.118436 -0.435199,0.189391 -0.74155,0.21872 -2.233827,0.820006 -3.462733,1.395245 -0.645071,0.301953 -1.182785,0.549004 -1.194924,0.549004 -0.01216,0 -0.04989,-0.233151 -0.08396,-0.518114 -0.03405,-0.284961 -0.179427,-0.772685 -0.323081,-1.083831 -0.143661,-0.311145 -0.261204,-0.580241 -0.261204,-0.597994 0,-0.01775 0.157082,-0.007 0.349067,0.02389 0.774376,0.124603 1.489859,-0.383636 1.716867,-1.219558 0.142342,-0.524145 0.05837,-0.675962 -0.476729,-0.86176 -0.606674,-0.21066 -1.051365,-0.08769 -1.551441,0.428987 -0.632668,0.653682 -1.106323,2.195508 -1.237529,4.02834 -0.05896,0.823452 -0.08226,0.894574 -0.341535,1.042126 -0.236529,0.134603 -0.317465,0.137994 -0.539571,0.02261 z"
     id="path4228"
     inkscape:connector-curvature="0" />
</svg>
