<?xml version="1.0" encoding="UTF-8" standalone="no"?>
<svg
   xmlns:dc="http://purl.org/dc/elements/1.1/"
   xmlns:cc="http://creativecommons.org/ns#"
   xmlns:rdf="http://www.w3.org/1999/02/22-rdf-syntax-ns#"
   xmlns:svg="http://www.w3.org/2000/svg"
   xmlns="http://www.w3.org/2000/svg"
   xmlns:xlink="http://www.w3.org/1999/xlink"
   xmlns:sodipodi="http://sodipodi.sourceforge.net/DTD/sodipodi-0.dtd"
   xmlns:inkscape="http://www.inkscape.org/namespaces/inkscape"
   height="48"
   width="48"
   version="1.1"
   viewBox="0 0 48 48.000001"
   id="svg2"
   inkscape:version="0.91 r"
   sodipodi:docname="ru_superjob_client_android.svg">
  <metadata
     id="metadata79">
    <rdf:RDF>
      <cc:Work
         rdf:about="">
        <dc:format>image/svg+xml</dc:format>
        <dc:type
           rdf:resource="http://purl.org/dc/dcmitype/StillImage" />
        <dc:title />
      </cc:Work>
    </rdf:RDF>
  </metadata>
  <sodipodi:namedview
     pagecolor="#ffffff"
     bordercolor="#666666"
     borderopacity="1"
     objecttolerance="10"
     gridtolerance="10"
     guidetolerance="10"
     inkscape:pageopacity="0"
     inkscape:pageshadow="2"
     inkscape:window-width="1600"
     inkscape:window-height="841"
     id="namedview77"
     showgrid="false"
     inkscape:zoom="1"
     inkscape:cx="33.334218"
     inkscape:cy="19.317871"
     inkscape:window-x="-4"
     inkscape:window-y="33"
     inkscape:window-maximized="1"
     inkscape:current-layer="svg2" />
  <defs
     id="defs4">
    <linearGradient
       id="g"
       y2="5.1758"
       gradientUnits="userSpaceOnUse"
       x2="-95.838"
       gradientTransform="matrix(0.8075,0,0,0.83374,106.88,-0.1)"
       y1="54.2"
       x1="-95.838">
      <stop
         stop-opacity=".32174"
         offset="0"
         id="stop7" />
      <stop
         stop-opacity=".27826"
         offset="1"
         id="stop9" />
    </linearGradient>
    <linearGradient
       id="f"
       y2="43"
       gradientUnits="userSpaceOnUse"
       x2="24"
       gradientTransform="translate(4e-6,0.9622)"
       y1="5"
       x1="24">
      <stop
         stop-color="#fff"
         offset="0"
         id="stop12" />
      <stop
         stop-color="#fff"
         stop-opacity=".23529"
         offset=".063165"
         id="stop14" />
      <stop
         stop-color="#fff"
         stop-opacity=".15686"
         offset=".95056"
         id="stop16" />
      <stop
         stop-color="#fff"
         stop-opacity=".39216"
         offset="1"
         id="stop18" />
    </linearGradient>
    <radialGradient
       id="b"
       gradientUnits="userSpaceOnUse"
       cy="4.3419"
       cx="32"
       gradientTransform="matrix(0,1.6258,-1.6258,0,31.059,-46.17)"
       r="27.5">
      <stop
         stop-color="#fafafa"
         offset="0"
         id="stop21" />
      <stop
         stop-color="#e1e1e1"
         offset="1"
         id="stop23" />
    </radialGradient>
    <radialGradient
       id="d"
       xlink:href="#a"
       gradientUnits="userSpaceOnUse"
       cy="43.5"
       cx="4.993"
       gradientTransform="matrix(2.0038,0,0,1.4,27.988,-17.4)"
       r="2.5" />
    <linearGradient
       id="a">
      <stop
         stop-color="#181818"
         offset="0"
         id="stop27" />
      <stop
         stop-color="#181818"
         stop-opacity="0"
         offset="1"
         id="stop29" />
    </linearGradient>
    <radialGradient
       id="c"
       xlink:href="#a"
       gradientUnits="userSpaceOnUse"
       cy="43.5"
       cx="4.993"
       gradientTransform="matrix(2.0038,0,0,1.4,-20.012,-104.4)"
       r="2.5" />
    <linearGradient
       id="e"
       y2="39.999"
       gradientUnits="userSpaceOnUse"
       x2="25.058"
       y1="47.028"
       x1="25.058">
      <stop
         stop-color="#181818"
         stop-opacity="0"
         offset="0"
         id="stop33" />
      <stop
         stop-color="#181818"
         offset=".5"
         id="stop35" />
      <stop
         stop-color="#181818"
         stop-opacity="0"
         offset="1"
         id="stop37" />
    </linearGradient>
  </defs>
  <g
     style="opacity:0.4"
     id="g41"
     transform="matrix(1.1579,0,0,0.64286,-3.7895,16)">
    <rect
       style="fill:url(#d)"
       id="rect43"
       x="38"
       y="40"
       width="5"
       height="7" />
    <rect
       style="fill:url(#c)"
       id="rect45"
       x="-10"
       y="-47"
       width="5"
       height="7"
       transform="scale(-1,-1)" />
    <rect
       style="fill:url(#e)"
       id="rect47"
       x="10"
       y="40"
       width="28"
       height="7" />
  </g>
  <rect
     id="rect49"
     x="5"
     y="6.0000243"
     width="38"
     height="38"
     ry="1.5"
     rx="1.5"
     style="color:#000000;fill:url(#b)" />
  <path
     style="color:#000000;fill:#e95410;fill-opacity:1"
     d="m 24,27 19,7 0,8.500024 c 0,0.831 -0.669,1.5 -1.5,1.5 l -35,0 c -0.831,0 -1.5,-0.669 -1.5,-1.5 L 5,34 Z"
     id="rect4288"
     inkscape:connector-curvature="0"
     sodipodi:nodetypes="ccsssscc" />
  <rect
     style="fill:none;stroke:url(#f);stroke-linecap:round;stroke-linejoin:round"
     id="rect55"
     x="5.5"
     y="6.5000243"
     width="37"
     height="37"
     ry="1"
     rx="1" />
  <rect
     id="rect57"
     x="4.5"
     y="5.5000243"
     width="39"
     height="39"
     ry="2"
     rx="2"
     style="color:#000000;opacity:0.8;fill:none;stroke:url(#g)" />
  <g
     id="g4375"
     style="fill:none;stroke:#ffffff;stroke-opacity:1;stroke-linejoin:round;stroke-linecap:round;stroke-width:2;stroke-miterlimit:4;stroke-dasharray:none;opacity:0.15">
    <path
       inkscape:connector-curvature="0"
       id="path4377"
       d="m 8.8462623,13.000005 c -0.5955934,0 -1.051532,0.16444 -1.3691819,0.493287 C 7.1594306,13.822139 7,14.292428 7,14.903535 c 0,0.487789 0.1141179,0.875858 0.3413258,1.163599 0.2294138,0.287741 0.5899753,0.497004 1.0840974,0.628543 l 0.4945345,0.135256 c 0.3000026,0.08221 0.4980546,0.176322 0.5973201,0.280457 0.1014716,0.104135 0.1532088,0.251733 0.1532088,0.443561 0,0.21375 -0.073291,0.378189 -0.221086,0.493285 -0.1477955,0.115097 -0.3620424,0.173048 -0.639986,0.173048 -0.2735318,0 -0.5577236,-0.053 -0.8533145,-0.157134 C 7.6627152,17.957274 7.3581097,17.801012 7.0426658,17.592742 l 0,1.334659 c 0.3154439,0.145241 0.6309593,0.256193 0.9464034,0.330183 0.3154438,0.07399 0.6292865,0.111388 0.9425246,0.111388 0.6639765,0 1.1576632,-0.164439 1.4797252,-0.493287 0.324267,-0.331588 0.486777,-0.836797 0.486777,-1.513674 0,-0.515193 -0.115524,-0.911926 -0.347144,-1.191446 C 10.319332,15.891045 9.9288535,15.68302 9.3795839,15.546 L 8.8365656,15.408756 C 8.5784749,15.342986 8.4005702,15.266468 8.3013047,15.176036 8.2042449,15.082862 8.153914,14.952593 8.153914,14.78817 c 0,-0.219232 0.073557,-0.379207 0.2191466,-0.483342 0.1455895,-0.104135 0.3704798,-0.157136 0.6748943,-0.157136 0.2294138,0 0.4730449,0.03864 0.7311353,0.115366 0.2580908,0.07673 0.5238078,0.189407 0.7951338,0.340129 l 0,-1.298856 C 10.267604,13.202939 9.9708293,13.128895 9.6840621,13.079567 9.3972948,13.027497 9.1175883,13 8.8462623,13 Z M 19.210155,14.53357 c -0.258091,0 -0.48606,0.06414 -0.684591,0.192939 -0.198531,0.126057 -0.379781,0.32418 -0.543018,0.592739 l 0,-0.674291 -1.184943,0 0,6.355043 1.184943,0 0,-2.416707 c 0.163237,0.268559 0.344487,0.465931 0.543018,0.59473 0.198531,0.126057 0.4265,0.190949 0.684591,0.190949 0.456622,0 0.831439,-0.224867 1.124824,-0.674291 0.293385,-0.452165 0.440233,-1.034643 0.440233,-1.744404 0,-0.709763 -0.146848,-1.289014 -0.440233,-1.738438 -0.293385,-0.452165 -0.668202,-0.678269 -1.124824,-0.678269 z m 4.221968,0 c -0.639712,0 -1.142636,0.216202 -1.508815,0.646444 -0.363974,0.430241 -0.546897,1.019395 -0.546897,1.770263 0,0.764568 0.186002,1.359424 0.556593,1.784185 0.372798,0.42202 0.894462,0.63451 1.565056,0.63451 0.280151,0 0.559591,-0.03492 0.83974,-0.103431 0.28015,-0.06577 0.561528,-0.164831 0.841678,-0.29637 l 0,-1.133764 c -0.275737,0.186347 -0.546207,0.326518 -0.808709,0.419692 -0.260297,0.09043 -0.514837,0.135256 -0.764105,0.135256 -0.308827,0 -0.549379,-0.08593 -0.721438,-0.258578 -0.172061,-0.172645 -0.271923,-0.432433 -0.3006,-0.777722 l 2.769394,0 0,-0.419692 c 0,-0.728944 -0.174826,-1.310671 -0.525565,-1.746393 -0.348532,-0.435722 -0.813974,-0.6544 -1.396332,-0.6544 z m 5.234308,0 c -0.275738,0 -0.51321,0.07108 -0.711741,0.21084 -0.196326,0.137019 -0.369478,0.354946 -0.521686,0.656389 l 0,-0.755842 -1.184943,0 0,4.604671 1.184943,0 0,-2.122325 c 0,-0.452165 0.08112,-0.799124 0.244359,-1.040279 0.165442,-0.243894 0.39957,-0.365986 0.703984,-0.365986 0.103677,0 0.206885,0.0156 0.308357,0.04575 0.103677,0.0274 0.206618,0.07099 0.310296,0.131278 l -0.002,-1.33068 c -0.08823,-0.0137 -0.155369,-0.02312 -0.201692,-0.02586 -0.04632,-0.0055 -0.09023,-0.0079 -0.129938,-0.0079 z m -16.740478,0.111387 0,2.812529 c 0,0.622069 0.112711,1.09607 0.335507,1.422178 0.225002,0.326106 0.551427,0.489308 0.979372,0.489308 0.240443,0 0.458909,-0.06489 0.657441,-0.190949 0.200736,-0.128799 0.39149,-0.326171 0.570168,-0.59473 l 0,0.666335 1.184944,0 0,-4.604671 -1.184944,0 0,2.273495 c 0,0.419279 -0.07021,0.74692 -0.211389,0.982594 -0.141178,0.235674 -0.336683,0.354053 -0.583745,0.354053 -0.101471,0 -0.192096,-0.0275 -0.271508,-0.07957 -0.07721,-0.05207 -0.139588,-0.124871 -0.188118,-0.220785 -0.0375,-0.07399 -0.06407,-0.192369 -0.07952,-0.354053 -0.01544,-0.164423 -0.02327,-0.431638 -0.02327,-0.80159 0,-0.126059 0.0017,-0.376431 0.0039,-0.751864 0.0022,-0.378174 0.0039,-0.693439 0.0039,-0.942814 l 0,-0.459473 -1.1927,0 z m 11.498413,0.86723 c 0.211766,0 0.38378,0.08593 0.513928,0.258577 0.132354,0.169904 0.197813,0.394772 0.197813,0.674292 l -1.537906,0 c 0.03529,-0.301444 0.124248,-0.531261 0.267632,-0.690205 0.143382,-0.161682 0.329118,-0.242664 0.558533,-0.242664 z m -4.654443,0.09149 c 0.253678,0 0.445572,0.113914 0.577926,0.344107 0.134561,0.230194 0.201693,0.564023 0.201693,1.002487 0,0.438462 -0.06713,0.774281 -0.201693,1.004474 -0.132354,0.230193 -0.324248,0.344107 -0.577926,0.344107 -0.25368,0 -0.448919,-0.113914 -0.585685,-0.344107 -0.13456,-0.232934 -0.201692,-0.568753 -0.201692,-1.004474 0,-0.435723 0.06713,-0.768316 0.201692,-0.998508 0.136766,-0.232933 0.332005,-0.348086 0.585685,-0.348086 z"
       style="font-style:normal;font-variant:normal;font-weight:bold;font-stretch:normal;font-size:medium;line-height:125%;font-family:sans-serif;-inkscape-font-specification:'sans-serif Bold';letter-spacing:0px;word-spacing:0px;fill:none;fill-opacity:1;stroke:#ffffff;stroke-width:2;stroke-linecap:round;stroke-linejoin:round;stroke-opacity:1;stroke-miterlimit:4;stroke-dasharray:none" />
    <path
       inkscape:connector-curvature="0"
       id="path4379"
       d="m 37.059559,13 0,6.332267 1.17387,0 0,-0.659612 c 0.161713,0.265849 0.341269,0.461229 0.537945,0.588729 0.196676,0.124785 0.422514,0.189023 0.678194,0.189023 0.452355,0 0.82367,-0.222599 1.114313,-0.667488 C 40.854525,18.335317 41,17.758716 41,17.056117 c 0,-0.702601 -0.145475,-1.276008 -0.436119,-1.720897 -0.290643,-0.447602 -0.661958,-0.671424 -1.114313,-0.671424 -0.25568,0 -0.481518,0.06349 -0.678194,0.190991 -0.196676,0.124786 -0.376232,0.32091 -0.537945,0.586759 l 0,-2.441546 -1.17387,0 z m -7.066283,0.255968 0,5.485602 c 0,0.352656 -0.06816,0.619625 -0.20365,0.801378 -0.133302,0.181754 -0.331426,0.27369 -0.59366,0.27369 L 29,19.816638 29,21 l 0.255524,0 c 0.670883,0 1.170501,-0.186804 1.500481,-0.561162 0.332163,-0.374358 0.499519,-0.940414 0.499519,-1.697268 l 0,-5.485602 -1.262248,0 z m 4.197886,1.407828 c -0.633734,0 -1.128643,0.212795 -1.487031,0.635982 -0.356202,0.423188 -0.534102,1.007621 -0.534102,1.756339 0,0.748716 0.1779,1.335118 0.534102,1.758306 0.358388,0.423187 0.853297,0.635984 1.487031,0.635984 0.631549,0 1.125329,-0.212797 1.479347,-0.635984 0.356202,-0.423188 0.534102,-1.00959 0.534102,-1.758306 0,-0.748718 -0.1779,-1.333151 -0.534102,-1.756339 -0.354018,-0.423187 -0.847798,-0.635982 -1.479347,-0.635982 z m 0,1.041594 c 0.25568,0 0.452409,0.117184 0.587896,0.35048 0.135488,0.230583 0.201729,0.563495 0.201729,1.000247 0,0.43675 -0.06624,0.772856 -0.201729,1.006152 -0.135487,0.230584 -0.332216,0.346542 -0.587896,0.346542 -0.260049,0 -0.457908,-0.115958 -0.595581,-0.346542 -0.135487,-0.233296 -0.20365,-0.569402 -0.20365,-1.006152 0,-0.436752 0.06816,-0.769664 0.20365,-1.000247 0.137673,-0.233296 0.335532,-0.35048 0.595581,-0.35048 z m 4.822287,0.01772 c 0.251308,0 0.443329,0.112765 0.574447,0.340634 0.133303,0.227871 0.199808,0.558333 0.199808,0.992372 0,0.434038 -0.06651,0.766468 -0.199808,0.994339 -0.131118,0.22787 -0.323139,0.340634 -0.574447,0.340634 -0.251308,0 -0.444723,-0.112764 -0.580212,-0.340634 -0.133303,-0.230586 -0.199808,-0.563016 -0.199808,-0.994341 0,-0.431326 0.06651,-0.760563 0.199808,-0.988433 0.135489,-0.230583 0.328904,-0.344573 0.580212,-0.344573 z"
       style="font-style:normal;font-variant:normal;font-weight:bold;font-stretch:normal;font-size:medium;line-height:125%;font-family:sans-serif;-inkscape-font-specification:'sans-serif Bold';letter-spacing:0px;word-spacing:0px;fill:none;fill-opacity:1;stroke:#ffffff;stroke-width:2;stroke-linecap:round;stroke-linejoin:round;stroke-opacity:1;stroke-miterlimit:4;stroke-dasharray:none" />
  </g>
  <g
     style="opacity:0.05;fill:#ffffff;fill-opacity:1;stroke:none;stroke-width:2;stroke-linecap:round;stroke-linejoin:round;stroke-miterlimit:4;stroke-dasharray:none;stroke-opacity:1"
     id="g4381"
     transform="translate(0,1)">
    <path
       style="font-style:normal;font-variant:normal;font-weight:bold;font-stretch:normal;font-size:medium;line-height:125%;font-family:sans-serif;-inkscape-font-specification:'sans-serif Bold';letter-spacing:0px;word-spacing:0px;fill:#ffffff;fill-opacity:1;stroke:none;stroke-width:2;stroke-linecap:round;stroke-linejoin:round;stroke-miterlimit:4;stroke-dasharray:none;stroke-opacity:1"
       d="m 8.8462623,13.000005 c -0.5955934,0 -1.051532,0.16444 -1.3691819,0.493287 C 7.1594306,13.822139 7,14.292428 7,14.903535 c 0,0.487789 0.1141179,0.875858 0.3413258,1.163599 0.2294138,0.287741 0.5899753,0.497004 1.0840974,0.628543 l 0.4945345,0.135256 c 0.3000026,0.08221 0.4980546,0.176322 0.5973201,0.280457 0.1014716,0.104135 0.1532088,0.251733 0.1532088,0.443561 0,0.21375 -0.073291,0.378189 -0.221086,0.493285 -0.1477955,0.115097 -0.3620424,0.173048 -0.639986,0.173048 -0.2735318,0 -0.5577236,-0.053 -0.8533145,-0.157134 C 7.6627152,17.957274 7.3581097,17.801012 7.0426658,17.592742 l 0,1.334659 c 0.3154439,0.145241 0.6309593,0.256193 0.9464034,0.330183 0.3154438,0.07399 0.6292865,0.111388 0.9425246,0.111388 0.6639765,0 1.1576632,-0.164439 1.4797252,-0.493287 0.324267,-0.331588 0.486777,-0.836797 0.486777,-1.513674 0,-0.515193 -0.115524,-0.911926 -0.347144,-1.191446 C 10.319332,15.891045 9.9288535,15.68302 9.3795839,15.546 L 8.8365656,15.408756 C 8.5784749,15.342986 8.4005702,15.266468 8.3013047,15.176036 8.2042449,15.082862 8.153914,14.952593 8.153914,14.78817 c 0,-0.219232 0.073557,-0.379207 0.2191466,-0.483342 0.1455895,-0.104135 0.3704798,-0.157136 0.6748943,-0.157136 0.2294138,0 0.4730449,0.03864 0.7311353,0.115366 0.2580908,0.07673 0.5238078,0.189407 0.7951338,0.340129 l 0,-1.298856 C 10.267604,13.202939 9.9708293,13.128895 9.6840621,13.079567 9.3972948,13.027497 9.1175883,13 8.8462623,13 Z M 19.210155,14.53357 c -0.258091,0 -0.48606,0.06414 -0.684591,0.192939 -0.198531,0.126057 -0.379781,0.32418 -0.543018,0.592739 l 0,-0.674291 -1.184943,0 0,6.355043 1.184943,0 0,-2.416707 c 0.163237,0.268559 0.344487,0.465931 0.543018,0.59473 0.198531,0.126057 0.4265,0.190949 0.684591,0.190949 0.456622,0 0.831439,-0.224867 1.124824,-0.674291 0.293385,-0.452165 0.440233,-1.034643 0.440233,-1.744404 0,-0.709763 -0.146848,-1.289014 -0.440233,-1.738438 -0.293385,-0.452165 -0.668202,-0.678269 -1.124824,-0.678269 z m 4.221968,0 c -0.639712,0 -1.142636,0.216202 -1.508815,0.646444 -0.363974,0.430241 -0.546897,1.019395 -0.546897,1.770263 0,0.764568 0.186002,1.359424 0.556593,1.784185 0.372798,0.42202 0.894462,0.63451 1.565056,0.63451 0.280151,0 0.559591,-0.03492 0.83974,-0.103431 0.28015,-0.06577 0.561528,-0.164831 0.841678,-0.29637 l 0,-1.133764 c -0.275737,0.186347 -0.546207,0.326518 -0.808709,0.419692 -0.260297,0.09043 -0.514837,0.135256 -0.764105,0.135256 -0.308827,0 -0.549379,-0.08593 -0.721438,-0.258578 -0.172061,-0.172645 -0.271923,-0.432433 -0.3006,-0.777722 l 2.769394,0 0,-0.419692 c 0,-0.728944 -0.174826,-1.310671 -0.525565,-1.746393 -0.348532,-0.435722 -0.813974,-0.6544 -1.396332,-0.6544 z m 5.234308,0 c -0.275738,0 -0.51321,0.07108 -0.711741,0.21084 -0.196326,0.137019 -0.369478,0.354946 -0.521686,0.656389 l 0,-0.755842 -1.184943,0 0,4.604671 1.184943,0 0,-2.122325 c 0,-0.452165 0.08112,-0.799124 0.244359,-1.040279 0.165442,-0.243894 0.39957,-0.365986 0.703984,-0.365986 0.103677,0 0.206885,0.0156 0.308357,0.04575 0.103677,0.0274 0.206618,0.07099 0.310296,0.131278 l -0.002,-1.33068 c -0.08823,-0.0137 -0.155369,-0.02312 -0.201692,-0.02586 -0.04632,-0.0055 -0.09023,-0.0079 -0.129938,-0.0079 z m -16.740478,0.111387 0,2.812529 c 0,0.622069 0.112711,1.09607 0.335507,1.422178 0.225002,0.326106 0.551427,0.489308 0.979372,0.489308 0.240443,0 0.458909,-0.06489 0.657441,-0.190949 0.200736,-0.128799 0.39149,-0.326171 0.570168,-0.59473 l 0,0.666335 1.184944,0 0,-4.604671 -1.184944,0 0,2.273495 c 0,0.419279 -0.07021,0.74692 -0.211389,0.982594 -0.141178,0.235674 -0.336683,0.354053 -0.583745,0.354053 -0.101471,0 -0.192096,-0.0275 -0.271508,-0.07957 -0.07721,-0.05207 -0.139588,-0.124871 -0.188118,-0.220785 -0.0375,-0.07399 -0.06407,-0.192369 -0.07952,-0.354053 -0.01544,-0.164423 -0.02327,-0.431638 -0.02327,-0.80159 0,-0.126059 0.0017,-0.376431 0.0039,-0.751864 0.0022,-0.378174 0.0039,-0.693439 0.0039,-0.942814 l 0,-0.459473 -1.1927,0 z m 11.498413,0.86723 c 0.211766,0 0.38378,0.08593 0.513928,0.258577 0.132354,0.169904 0.197813,0.394772 0.197813,0.674292 l -1.537906,0 c 0.03529,-0.301444 0.124248,-0.531261 0.267632,-0.690205 0.143382,-0.161682 0.329118,-0.242664 0.558533,-0.242664 z m -4.654443,0.09149 c 0.253678,0 0.445572,0.113914 0.577926,0.344107 0.134561,0.230194 0.201693,0.564023 0.201693,1.002487 0,0.438462 -0.06713,0.774281 -0.201693,1.004474 -0.132354,0.230193 -0.324248,0.344107 -0.577926,0.344107 -0.25368,0 -0.448919,-0.113914 -0.585685,-0.344107 -0.13456,-0.232934 -0.201692,-0.568753 -0.201692,-1.004474 0,-0.435723 0.06713,-0.768316 0.201692,-0.998508 0.136766,-0.232933 0.332005,-0.348086 0.585685,-0.348086 z"
       id="path4383"
       inkscape:connector-curvature="0" />
    <path
       style="font-style:normal;font-variant:normal;font-weight:bold;font-stretch:normal;font-size:medium;line-height:125%;font-family:sans-serif;-inkscape-font-specification:'sans-serif Bold';letter-spacing:0px;word-spacing:0px;fill:#ffffff;fill-opacity:1;stroke:none;stroke-width:2;stroke-linecap:round;stroke-linejoin:round;stroke-miterlimit:4;stroke-dasharray:none;stroke-opacity:1"
       d="m 37.059559,13 0,6.332267 1.17387,0 0,-0.659612 c 0.161713,0.265849 0.341269,0.461229 0.537945,0.588729 0.196676,0.124785 0.422514,0.189023 0.678194,0.189023 0.452355,0 0.82367,-0.222599 1.114313,-0.667488 C 40.854525,18.335317 41,17.758716 41,17.056117 c 0,-0.702601 -0.145475,-1.276008 -0.436119,-1.720897 -0.290643,-0.447602 -0.661958,-0.671424 -1.114313,-0.671424 -0.25568,0 -0.481518,0.06349 -0.678194,0.190991 -0.196676,0.124786 -0.376232,0.32091 -0.537945,0.586759 l 0,-2.441546 -1.17387,0 z m -7.066283,0.255968 0,5.485602 c 0,0.352656 -0.06816,0.619625 -0.20365,0.801378 -0.133302,0.181754 -0.331426,0.27369 -0.59366,0.27369 L 29,19.816638 29,21 l 0.255524,0 c 0.670883,0 1.170501,-0.186804 1.500481,-0.561162 0.332163,-0.374358 0.499519,-0.940414 0.499519,-1.697268 l 0,-5.485602 -1.262248,0 z m 4.197886,1.407828 c -0.633734,0 -1.128643,0.212795 -1.487031,0.635982 -0.356202,0.423188 -0.534102,1.007621 -0.534102,1.756339 0,0.748716 0.1779,1.335118 0.534102,1.758306 0.358388,0.423187 0.853297,0.635984 1.487031,0.635984 0.631549,0 1.125329,-0.212797 1.479347,-0.635984 0.356202,-0.423188 0.534102,-1.00959 0.534102,-1.758306 0,-0.748718 -0.1779,-1.333151 -0.534102,-1.756339 -0.354018,-0.423187 -0.847798,-0.635982 -1.479347,-0.635982 z m 0,1.041594 c 0.25568,0 0.452409,0.117184 0.587896,0.35048 0.135488,0.230583 0.201729,0.563495 0.201729,1.000247 0,0.43675 -0.06624,0.772856 -0.201729,1.006152 -0.135487,0.230584 -0.332216,0.346542 -0.587896,0.346542 -0.260049,0 -0.457908,-0.115958 -0.595581,-0.346542 -0.135487,-0.233296 -0.20365,-0.569402 -0.20365,-1.006152 0,-0.436752 0.06816,-0.769664 0.20365,-1.000247 0.137673,-0.233296 0.335532,-0.35048 0.595581,-0.35048 z m 4.822287,0.01772 c 0.251308,0 0.443329,0.112765 0.574447,0.340634 0.133303,0.227871 0.199808,0.558333 0.199808,0.992372 0,0.434038 -0.06651,0.766468 -0.199808,0.994339 -0.131118,0.22787 -0.323139,0.340634 -0.574447,0.340634 -0.251308,0 -0.444723,-0.112764 -0.580212,-0.340634 -0.133303,-0.230586 -0.199808,-0.563016 -0.199808,-0.994341 0,-0.431326 0.06651,-0.760563 0.199808,-0.988433 0.135489,-0.230583 0.328904,-0.344573 0.580212,-0.344573 z"
       id="path4385"
       inkscape:connector-curvature="0" />
  </g>
  <g
     id="g4371">
    <path
       style="font-style:normal;font-variant:normal;font-weight:bold;font-stretch:normal;font-size:medium;line-height:125%;font-family:sans-serif;-inkscape-font-specification:'sans-serif Bold';letter-spacing:0px;word-spacing:0px;fill:#107ae9;fill-opacity:1;stroke:none;stroke-width:1px;stroke-linecap:butt;stroke-linejoin:miter;stroke-opacity:1"
       d="m 8.8462623,13.000005 c -0.5955934,0 -1.051532,0.16444 -1.3691819,0.493287 C 7.1594306,13.822139 7,14.292428 7,14.903535 c 0,0.487789 0.1141179,0.875858 0.3413258,1.163599 0.2294138,0.287741 0.5899753,0.497004 1.0840974,0.628543 l 0.4945345,0.135256 c 0.3000026,0.08221 0.4980546,0.176322 0.5973201,0.280457 0.1014716,0.104135 0.1532088,0.251733 0.1532088,0.443561 0,0.21375 -0.073291,0.378189 -0.221086,0.493285 -0.1477955,0.115097 -0.3620424,0.173048 -0.639986,0.173048 -0.2735318,0 -0.5577236,-0.053 -0.8533145,-0.157134 C 7.6627152,17.957274 7.3581097,17.801012 7.0426658,17.592742 l 0,1.334659 c 0.3154439,0.145241 0.6309593,0.256193 0.9464034,0.330183 0.3154438,0.07399 0.6292865,0.111388 0.9425246,0.111388 0.6639765,0 1.1576632,-0.164439 1.4797252,-0.493287 0.324267,-0.331588 0.486777,-0.836797 0.486777,-1.513674 0,-0.515193 -0.115524,-0.911926 -0.347144,-1.191446 C 10.319332,15.891045 9.9288535,15.68302 9.3795839,15.546 L 8.8365656,15.408756 C 8.5784749,15.342986 8.4005702,15.266468 8.3013047,15.176036 8.2042449,15.082862 8.153914,14.952593 8.153914,14.78817 c 0,-0.219232 0.073557,-0.379207 0.2191466,-0.483342 0.1455895,-0.104135 0.3704798,-0.157136 0.6748943,-0.157136 0.2294138,0 0.4730449,0.03864 0.7311353,0.115366 0.2580908,0.07673 0.5238078,0.189407 0.7951338,0.340129 l 0,-1.298856 C 10.267604,13.202939 9.9708293,13.128895 9.6840621,13.079567 9.3972948,13.027497 9.1175883,13 8.8462623,13 Z M 19.210155,14.53357 c -0.258091,0 -0.48606,0.06414 -0.684591,0.192939 -0.198531,0.126057 -0.379781,0.32418 -0.543018,0.592739 l 0,-0.674291 -1.184943,0 0,6.355043 1.184943,0 0,-2.416707 c 0.163237,0.268559 0.344487,0.465931 0.543018,0.59473 0.198531,0.126057 0.4265,0.190949 0.684591,0.190949 0.456622,0 0.831439,-0.224867 1.124824,-0.674291 0.293385,-0.452165 0.440233,-1.034643 0.440233,-1.744404 0,-0.709763 -0.146848,-1.289014 -0.440233,-1.738438 -0.293385,-0.452165 -0.668202,-0.678269 -1.124824,-0.678269 z m 4.221968,0 c -0.639712,0 -1.142636,0.216202 -1.508815,0.646444 -0.363974,0.430241 -0.546897,1.019395 -0.546897,1.770263 0,0.764568 0.186002,1.359424 0.556593,1.784185 0.372798,0.42202 0.894462,0.63451 1.565056,0.63451 0.280151,0 0.559591,-0.03492 0.83974,-0.103431 0.28015,-0.06577 0.561528,-0.164831 0.841678,-0.29637 l 0,-1.133764 c -0.275737,0.186347 -0.546207,0.326518 -0.808709,0.419692 -0.260297,0.09043 -0.514837,0.135256 -0.764105,0.135256 -0.308827,0 -0.549379,-0.08593 -0.721438,-0.258578 -0.172061,-0.172645 -0.271923,-0.432433 -0.3006,-0.777722 l 2.769394,0 0,-0.419692 c 0,-0.728944 -0.174826,-1.310671 -0.525565,-1.746393 -0.348532,-0.435722 -0.813974,-0.6544 -1.396332,-0.6544 z m 5.234308,0 c -0.275738,0 -0.51321,0.07108 -0.711741,0.21084 -0.196326,0.137019 -0.369478,0.354946 -0.521686,0.656389 l 0,-0.755842 -1.184943,0 0,4.604671 1.184943,0 0,-2.122325 c 0,-0.452165 0.08112,-0.799124 0.244359,-1.040279 0.165442,-0.243894 0.39957,-0.365986 0.703984,-0.365986 0.103677,0 0.206885,0.0156 0.308357,0.04575 0.103677,0.0274 0.206618,0.07099 0.310296,0.131278 l -0.002,-1.33068 c -0.08823,-0.0137 -0.155369,-0.02312 -0.201692,-0.02586 -0.04632,-0.0055 -0.09023,-0.0079 -0.129938,-0.0079 z m -16.740478,0.111387 0,2.812529 c 0,0.622069 0.112711,1.09607 0.335507,1.422178 0.225002,0.326106 0.551427,0.489308 0.979372,0.489308 0.240443,0 0.458909,-0.06489 0.657441,-0.190949 0.200736,-0.128799 0.39149,-0.326171 0.570168,-0.59473 l 0,0.666335 1.184944,0 0,-4.604671 -1.184944,0 0,2.273495 c 0,0.419279 -0.07021,0.74692 -0.211389,0.982594 -0.141178,0.235674 -0.336683,0.354053 -0.583745,0.354053 -0.101471,0 -0.192096,-0.0275 -0.271508,-0.07957 -0.07721,-0.05207 -0.139588,-0.124871 -0.188118,-0.220785 -0.0375,-0.07399 -0.06407,-0.192369 -0.07952,-0.354053 -0.01544,-0.164423 -0.02327,-0.431638 -0.02327,-0.80159 0,-0.126059 0.0017,-0.376431 0.0039,-0.751864 0.0022,-0.378174 0.0039,-0.693439 0.0039,-0.942814 l 0,-0.459473 -1.1927,0 z m 11.498413,0.86723 c 0.211766,0 0.38378,0.08593 0.513928,0.258577 0.132354,0.169904 0.197813,0.394772 0.197813,0.674292 l -1.537906,0 c 0.03529,-0.301444 0.124248,-0.531261 0.267632,-0.690205 0.143382,-0.161682 0.329118,-0.242664 0.558533,-0.242664 z m -4.654443,0.09149 c 0.253678,0 0.445572,0.113914 0.577926,0.344107 0.134561,0.230194 0.201693,0.564023 0.201693,1.002487 0,0.438462 -0.06713,0.774281 -0.201693,1.004474 -0.132354,0.230193 -0.324248,0.344107 -0.577926,0.344107 -0.25368,0 -0.448919,-0.113914 -0.585685,-0.344107 -0.13456,-0.232934 -0.201692,-0.568753 -0.201692,-1.004474 0,-0.435723 0.06713,-0.768316 0.201692,-0.998508 0.136766,-0.232933 0.332005,-0.348086 0.585685,-0.348086 z"
       id="path4349"
       inkscape:connector-curvature="0" />
    <path
       style="font-style:normal;font-variant:normal;font-weight:bold;font-stretch:normal;font-size:medium;line-height:125%;font-family:sans-serif;-inkscape-font-specification:'sans-serif Bold';letter-spacing:0px;word-spacing:0px;fill:#e91010;fill-opacity:1;stroke:none;stroke-width:1px;stroke-linecap:butt;stroke-linejoin:miter;stroke-opacity:1"
       d="m 37.059559,13 0,6.332267 1.17387,0 0,-0.659612 c 0.161713,0.265849 0.341269,0.461229 0.537945,0.588729 0.196676,0.124785 0.422514,0.189023 0.678194,0.189023 0.452355,0 0.82367,-0.222599 1.114313,-0.667488 C 40.854525,18.335317 41,17.758716 41,17.056117 c 0,-0.702601 -0.145475,-1.276008 -0.436119,-1.720897 -0.290643,-0.447602 -0.661958,-0.671424 -1.114313,-0.671424 -0.25568,0 -0.481518,0.06349 -0.678194,0.190991 -0.196676,0.124786 -0.376232,0.32091 -0.537945,0.586759 l 0,-2.441546 -1.17387,0 z m -7.066283,0.255968 0,5.485602 c 0,0.352656 -0.06816,0.619625 -0.20365,0.801378 -0.133302,0.181754 -0.331426,0.27369 -0.59366,0.27369 L 29,19.816638 29,21 l 0.255524,0 c 0.670883,0 1.170501,-0.186804 1.500481,-0.561162 0.332163,-0.374358 0.499519,-0.940414 0.499519,-1.697268 l 0,-5.485602 -1.262248,0 z m 4.197886,1.407828 c -0.633734,0 -1.128643,0.212795 -1.487031,0.635982 -0.356202,0.423188 -0.534102,1.007621 -0.534102,1.756339 0,0.748716 0.1779,1.335118 0.534102,1.758306 0.358388,0.423187 0.853297,0.635984 1.487031,0.635984 0.631549,0 1.125329,-0.212797 1.479347,-0.635984 0.356202,-0.423188 0.534102,-1.00959 0.534102,-1.758306 0,-0.748718 -0.1779,-1.333151 -0.534102,-1.756339 -0.354018,-0.423187 -0.847798,-0.635982 -1.479347,-0.635982 z m 0,1.041594 c 0.25568,0 0.452409,0.117184 0.587896,0.35048 0.135488,0.230583 0.201729,0.563495 0.201729,1.000247 0,0.43675 -0.06624,0.772856 -0.201729,1.006152 -0.135487,0.230584 -0.332216,0.346542 -0.587896,0.346542 -0.260049,0 -0.457908,-0.115958 -0.595581,-0.346542 -0.135487,-0.233296 -0.20365,-0.569402 -0.20365,-1.006152 0,-0.436752 0.06816,-0.769664 0.20365,-1.000247 0.137673,-0.233296 0.335532,-0.35048 0.595581,-0.35048 z m 4.822287,0.01772 c 0.251308,0 0.443329,0.112765 0.574447,0.340634 0.133303,0.227871 0.199808,0.558333 0.199808,0.992372 0,0.434038 -0.06651,0.766468 -0.199808,0.994339 -0.131118,0.22787 -0.323139,0.340634 -0.574447,0.340634 -0.251308,0 -0.444723,-0.112764 -0.580212,-0.340634 -0.133303,-0.230586 -0.199808,-0.563016 -0.199808,-0.994341 0,-0.431326 0.06651,-0.760563 0.199808,-0.988433 0.135489,-0.230583 0.328904,-0.344573 0.580212,-0.344573 z"
       id="path4359"
       inkscape:connector-curvature="0" />
  </g>
  <path
     id="path4170"
     d="M 24 31 A 5 5 0 0 0 19 36 A 5 5 0 0 0 24 41 A 5 5 0 0 0 27.607422 39.460938 C 27.698539 39.530858 27.792759 39.598317 27.896484 39.658203 L 31.361328 41.658203 C 32.320884 42.212203 33.42825 42.079042 33.84375 41.359375 C 34.25925 40.639708 33.820884 39.614547 32.861328 39.060547 L 29.396484 37.060547 C 29.242952 36.971905 29.08538 36.907377 28.927734 36.853516 A 5 5 0 0 0 29 36 A 5 5 0 0 0 24 31 z M 24 33 A 3 3 0 0 1 27 36 A 3 3 0 0 1 24 39 A 3 3 0 0 1 21 36 A 3 3 0 0 1 24 33 z "
     style="opacity:0.15;fill:none;fill-opacity:1;stroke:#000000;stroke-width:2;stroke-linecap:round;stroke-linejoin:round;stroke-miterlimit:4;stroke-dasharray:none;stroke-opacity:1" />
  <path
     id="path4172"
     d="m 24,31.999911 a 5,5 0 0 0 -5,5 5,5 0 0 0 5,5 5,5 0 0 0 3.607422,-1.539062 c 0.09112,0.06992 0.185337,0.137379 0.289062,0.197265 l 3.464844,2 c 0.959556,0.554 2.066922,0.420839 2.482422,-0.298828 0.4155,-0.719667 -0.02287,-1.744828 -0.982422,-2.298828 l -3.464844,-2 c -0.153532,-0.08864 -0.311104,-0.15317 -0.46875,-0.207031 A 5,5 0 0 0 29,36.999911 a 5,5 0 0 0 -5,-5 z m 0,2 a 3,3 0 0 1 3,3 3,3 0 0 1 -3,3 3,3 0 0 1 -3,-3 3,3 0 0 1 3,-3 z"
     style="opacity:0.05;fill:#000000;fill-opacity:1;stroke:none;stroke-width:2;stroke-linecap:round;stroke-linejoin:round;stroke-miterlimit:4;stroke-dasharray:none;stroke-opacity:1"
     inkscape:connector-curvature="0" />
  <path
     style="opacity:1;fill:#ffffff;fill-opacity:1;stroke:none;stroke-width:2;stroke-linecap:round;stroke-linejoin:round;stroke-miterlimit:4;stroke-dasharray:none;stroke-opacity:1"
     d="M 24 31 A 5 5 0 0 0 19 36 A 5 5 0 0 0 24 41 A 5 5 0 0 0 27.607422 39.460938 C 27.698539 39.530858 27.792759 39.598317 27.896484 39.658203 L 31.361328 41.658203 C 32.320884 42.212203 33.42825 42.079042 33.84375 41.359375 C 34.25925 40.639708 33.820884 39.614547 32.861328 39.060547 L 29.396484 37.060547 C 29.242952 36.971905 29.08538 36.907377 28.927734 36.853516 A 5 5 0 0 0 29 36 A 5 5 0 0 0 24 31 z M 24 33 A 3 3 0 0 1 27 36 A 3 3 0 0 1 24 39 A 3 3 0 0 1 21 36 A 3 3 0 0 1 24 33 z "
     id="path4387" />
  <path
     style="color:#000000;fill:#000000;fill-opacity:1;opacity:0.15"
     d="M 24 27 L 5 34 L 5 35 L 24 28 L 43 35 L 43 34 L 24 27 z "
     id="path4174" />
</svg>
